<?xml version="1.0" encoding="utf-8"?>
<svg xmlns="http://www.w3.org/2000/svg" style="margin: auto; background: rgb(45, 45, 45) none repeat scroll 0% 0%; display: block; shape-rendering: auto;" width="285" height="50" preserveAspectRatio="xMidYMid">
<style type="text/css">
  text {
    text-anchor: middle; font-size: 48px; opacity: 0;
  }
</style>
<g style="transform-origin:142.5px 25px;transform:scale(1)">
<g transform="translate(142.5,25)">
  <g transform="translate(0,0)"><g class="path" style="opacity: 1; transform-origin: -127.123px -4.65039px 0px; animation: 1s linear -0.625263s infinite normal forwards running fade-73c50586-09fc-4de8-8194-5a0743e6c3c3;"><path d="M14.25 0L1.59 0L1.59-2.06L4.45-2.25L4.45-2.25Q4.97-2.30 5.21-2.63L5.21-2.63L5.21-2.63Q5.46-2.95 5.46-3.30L5.46-3.30L5.46-28.90L5.46-28.90Q5.46-29.25 5.21-29.55L5.21-29.55L5.21-29.55Q4.97-29.86 4.45-29.91L4.45-29.91L1.59-30.09L1.59-32.20L14.25-32.20L14.25-30.09L11.32-29.91L11.32-29.91Q10.83-29.86 10.57-29.55L10.57-29.55L10.57-29.55Q10.31-29.25 10.31-28.90L10.31-28.90L10.31-3.30L10.31-3.30Q10.31-2.95 10.57-2.63L10.57-2.63L10.57-2.63Q10.83-2.30 11.32-2.25L11.32-2.25L14.25-2.06L14.25 0" fill="#ffffff" stroke="none" stroke-width="none" transform="translate(-135.04167938232422,11.450665588378904)" style="fill: rgb(255, 255, 255);"></path></g><g class="path" style="opacity: 1; transform-origin: -105.598px -0.410156px 0px; animation: 1s linear -0.590526s infinite normal forwards running fade-73c50586-09fc-4de8-8194-5a0743e6c3c3;"><path d="M42.09 0L31.50 0L31.50-1.88L33.52-2.02L33.52-2.02Q33.94-2.06 34.23-2.34L34.23-2.34L34.23-2.34Q34.52-2.63 34.52-3.07L34.52-3.07L34.52-15.56L34.52-15.56Q34.52-17.84 33.47-19.02L33.47-19.02L33.47-19.02Q32.41-20.20 29.91-20.20L29.91-20.20L29.91-20.20Q28.52-20.20 27.19-19.82L27.19-19.82L27.19-19.82Q25.85-19.43 24.63-18.82L24.63-18.82L24.63-3.07L24.63-3.07Q24.63-2.63 24.91-2.34L24.91-2.34L24.91-2.34Q25.20-2.06 25.64-2.02L25.64-2.02L27.66-1.88L27.66 0L16.80 0L16.80-1.88L19.15-2.02L19.15-2.02Q19.59-2.06 19.88-2.34L19.88-2.34L19.88-2.34Q20.16-2.63 20.16-3.07L20.16-3.07L20.16-19.73L16.80-19.73L16.80-21.30L22.66-23.13L24.63-23.13L24.63-20.74L24.63-20.74Q25.64-21.30 26.68-21.84L26.68-21.84L26.68-21.84Q27.73-22.38 28.76-22.80L28.76-22.80L28.76-22.80Q29.79-23.23 30.75-23.47L30.75-23.47L30.75-23.47Q31.71-23.72 32.55-23.72L32.55-23.72L32.55-23.72Q35.70-23.72 37.34-21.77L37.34-21.77L37.34-21.77Q38.98-19.83 38.98-16.31L38.98-16.31L38.98-3.07L38.98-3.07Q38.98-2.63 39.27-2.34L39.27-2.34L39.27-2.34Q39.56-2.06 39.98-2.02L39.98-2.02L42.09-1.88L42.09 0" fill="#ffffff" stroke="none" stroke-width="none" transform="translate(-135.04167938232422,11.450665588378904)" style="fill: rgb(245, 253, 255);"></path></g><g class="path" style="opacity: 1; transform-origin: -84.4707px -19.5801px 0px; animation: 1s linear -0.55579s infinite normal forwards running fade-73c50586-09fc-4de8-8194-5a0743e6c3c3;"><path d="M53.51-31.05L53.51-31.05L53.51-31.05Q53.51-30.45 53.29-29.89L53.29-29.89L53.29-29.89Q53.06-29.34 52.66-28.95L52.66-28.95L52.66-28.95Q52.27-28.55 51.74-28.31L51.74-28.31L51.74-28.31Q51.21-28.08 50.60-28.08L50.60-28.08L50.60-28.08Q49.99-28.08 49.44-28.31L49.44-28.31L49.44-28.31Q48.89-28.55 48.49-28.95L48.49-28.95L48.49-28.95Q48.09-29.34 47.86-29.89L47.86-29.89L47.86-29.89Q47.63-30.45 47.63-31.05L47.63-31.05L47.63-31.05Q47.63-31.66 47.86-32.20L47.86-32.20L47.86-32.20Q48.09-32.74 48.49-33.14L48.49-33.14L48.49-33.14Q48.89-33.54 49.44-33.76L49.44-33.76L49.44-33.76Q49.99-33.98 50.60-33.98L50.60-33.98L50.60-33.98Q51.21-33.98 51.74-33.76L51.74-33.76L51.74-33.76Q52.27-33.54 52.66-33.14L52.66-33.14L52.66-33.14Q53.06-32.74 53.29-32.20L53.29-32.20L53.29-32.20Q53.51-31.66 53.51-31.05" fill="#ffffff" stroke="none" stroke-width="none" transform="translate(-135.04167938232422,11.450665588378904)" style="fill: rgb(231, 246, 255);"></path></g><g class="path" style="opacity: 1; transform-origin: -84.7051px -0.410156px 0px; animation: 1s linear -0.521053s infinite normal forwards running fade-73c50586-09fc-4de8-8194-5a0743e6c3c3;"><path d="M55.97 0L44.70 0L44.70-1.88L47.04-2.02L47.04-2.02Q47.48-2.06 47.77-2.34L47.77-2.34L47.77-2.34Q48.05-2.63 48.05-3.07L48.05-3.07L48.05-20.20L44.74-20.20L44.74-21.89L50.60-23.72L52.50-23.72L52.50-3.07L52.50-3.07Q52.50-2.63 52.79-2.34L52.79-2.34L52.79-2.34Q53.09-2.06 53.51-2.02L53.51-2.02L55.97-1.88L55.97 0" fill="#ffffff" stroke="none" stroke-width="none" transform="translate(-135.04167938232422,11.450665588378904)" style="fill: rgb(219, 236, 255);"></path></g><g class="path" style="opacity: 1; transform-origin: -68.7969px -2.73047px 0px; animation: 1s linear -0.486316s infinite normal forwards running fade-73c50586-09fc-4de8-8194-5a0743e6c3c3;"><path d="M73.59-2.93L73.59-1.01L73.59-1.01Q72.70-0.56 71.65-0.21L71.65-0.21L71.65-0.21Q70.76 0.09 69.59 0.34L69.59 0.34L69.59 0.34Q68.41 0.59 67.13 0.59L67.13 0.59L67.13 0.59Q64.41 0.59 63.19-0.68L63.19-0.68L63.19-0.68Q61.97-1.95 61.97-4.80L61.97-4.80L61.97-20.74L58.90-20.74L58.90-22.31L62.18-23.86L64.34-28.95L66.45-28.95L66.45-23.13L73.22-23.13L73.22-20.74L66.45-20.74L66.45-7.34L66.45-7.34Q66.45-5.91 66.69-4.91L66.69-4.91L66.69-4.91Q66.94-3.91 67.42-3.29L67.42-3.29L67.42-3.29Q67.90-2.67 68.61-2.39L68.61-2.39L68.61-2.39Q69.33-2.11 70.29-2.11L70.29-2.11L70.29-2.11Q70.99-2.11 71.59-2.23L71.59-2.23L71.59-2.23Q72.19-2.34 72.63-2.51L72.63-2.51L72.63-2.51Q73.15-2.70 73.59-2.93L73.59-2.93" fill="#ffffff" stroke="none" stroke-width="none" transform="translate(-135.04167938232422,11.450665588378904)" style="fill: rgb(211, 230, 255);"></path></g><g class="path" style="opacity: 1; transform-origin: -53.6055px -19.5801px 0px; animation: 1s linear -0.451579s infinite normal forwards running fade-73c50586-09fc-4de8-8194-5a0743e6c3c3;"><path d="M84.38-31.05L84.38-31.05L84.38-31.05Q84.38-30.45 84.15-29.89L84.15-29.89L84.15-29.89Q83.93-29.34 83.53-28.95L83.53-28.95L83.53-28.95Q83.13-28.55 82.61-28.31L82.61-28.31L82.61-28.31Q82.08-28.08 81.47-28.08L81.47-28.08L81.47-28.08Q80.86-28.08 80.31-28.31L80.31-28.31L80.31-28.31Q79.76-28.55 79.36-28.95L79.36-28.95L79.36-28.95Q78.96-29.34 78.73-29.89L78.73-29.89L78.73-29.89Q78.49-30.45 78.49-31.05L78.49-31.05L78.49-31.05Q78.49-31.66 78.73-32.20L78.73-32.20L78.73-32.20Q78.96-32.74 79.36-33.14L79.36-33.14L79.36-33.14Q79.76-33.54 80.31-33.76L80.31-33.76L80.31-33.76Q80.86-33.98 81.47-33.98L81.47-33.98L81.47-33.98Q82.08-33.98 82.61-33.76L82.61-33.76L82.61-33.76Q83.13-33.54 83.53-33.14L83.53-33.14L83.53-33.14Q83.93-32.74 84.15-32.20L84.15-32.20L84.15-32.20Q84.38-31.66 84.38-31.05" fill="#ffffff" stroke="none" stroke-width="none" transform="translate(-135.04167938232422,11.450665588378904)" style="fill: rgb(255, 255, 255);"></path></g><g class="path" style="opacity: 1; transform-origin: -53.8418px -0.410156px 0px; animation: 1s linear -0.416842s infinite normal forwards running fade-73c50586-09fc-4de8-8194-5a0743e6c3c3;"><path d="M86.84 0L75.56 0L75.56-1.88L77.91-2.02L77.91-2.02Q78.35-2.06 78.63-2.34L78.63-2.34L78.63-2.34Q78.91-2.63 78.91-3.07L78.91-3.07L78.91-20.20L75.61-20.20L75.61-21.89L81.47-23.72L83.37-23.72L83.37-3.07L83.37-3.07Q83.37-2.63 83.66-2.34L83.66-2.34L83.66-2.34Q83.95-2.06 84.38-2.02L84.38-2.02L86.84-1.88L86.84 0" fill="#ffffff" stroke="none" stroke-width="none" transform="translate(-135.04167938232422,11.450665588378904)" style="fill: rgb(245, 253, 255);"></path></g><g class="path" style="opacity: 1; transform-origin: -33.9316px -0.115234px 0px; animation: 1s linear -0.382105s infinite normal forwards running fade-73c50586-09fc-4de8-8194-5a0743e6c3c3;"><path d="M112.10 0L105 0L104.37-2.84L104.37-2.84Q103.10-1.88 101.77-1.13L101.77-1.13L101.77-1.13Q101.18-0.80 100.52-0.49L100.52-0.49L100.52-0.49Q99.87-0.19 99.18 0.06L99.18 0.06L99.18 0.06Q98.48 0.30 97.77 0.45L97.77 0.45L97.77 0.45Q97.05 0.59 96.35 0.59L96.35 0.59L96.35 0.59Q95.04 0.59 93.90 0.14L93.90 0.14L93.90 0.14Q92.77-0.30 91.92-1.15L91.92-1.15L91.92-1.15Q91.08-1.99 90.60-3.19L90.60-3.19L90.60-3.19Q90.12-4.38 90.12-5.91L90.12-5.91L90.12-5.91Q90.12-6.80 90.29-7.59L90.29-7.59L90.29-7.59Q90.47-8.39 91.01-9.14L91.01-9.14L91.01-9.14Q91.55-9.89 92.52-10.58L92.52-10.58L92.52-10.58Q93.49-11.27 95.07-11.95L95.07-11.95L95.07-11.95Q96.66-12.63 98.94-13.30L98.94-13.30L98.94-13.30Q101.23-13.97 104.37-14.65L104.37-14.65L104.37-16.71L104.37-16.71Q104.37-19.13 103.29-20.29L103.29-20.29L103.29-20.29Q102.21-21.45 99.89-21.45L99.89-21.45L99.89-21.45Q98.63-21.45 97.73-21.21L97.73-21.21L97.73-21.21Q96.84-20.98 96.49-20.84L96.49-20.84L96.49-16.66L93-16.66L93-16.66Q92.67-16.66 92.36-16.71L92.36-16.71L92.36-16.71Q92.04-16.76 91.78-16.91L91.78-16.91L91.78-16.91Q91.52-17.06 91.37-17.33L91.37-17.33L91.37-17.33Q91.22-17.60 91.22-18.05L91.22-18.05L91.22-18.05Q91.22-19.52 92.11-20.59L92.11-20.59L92.11-20.59Q93-21.66 94.43-22.36L94.43-22.36L94.43-22.36Q95.86-23.06 97.64-23.39L97.64-23.39L97.64-23.39Q99.42-23.72 101.20-23.72L101.20-23.72L101.20-23.72Q103.43-23.72 104.89-23.18L104.89-23.18L104.89-23.18Q106.36-22.64 107.21-21.68L107.21-21.68L107.21-21.68Q108.07-20.72 108.42-19.41L108.42-19.41L108.42-19.41Q108.77-18.09 108.77-16.52L108.77-16.52L108.77-3.07L108.77-3.07Q108.77-2.63 109.07-2.34L109.07-2.34L109.07-2.34Q109.36-2.06 109.78-2.02L109.78-2.02L112.10-1.88L112.10 0zM104.37-4.52L104.37-12.82L104.37-12.82Q101.13-12 99.23-11.20L99.23-11.20L99.23-11.20Q97.34-10.41 96.36-9.60L96.36-9.60L96.36-9.60Q95.39-8.79 95.12-7.96L95.12-7.96L95.12-7.96Q94.85-7.13 94.85-6.23L94.85-6.23L94.85-6.23Q94.85-5.48 95.10-4.77L95.10-4.77L95.10-4.77Q95.34-4.05 95.80-3.49L95.80-3.49L95.80-3.49Q96.26-2.93 96.93-2.59L96.93-2.59L96.93-2.59Q97.59-2.25 98.46-2.25L98.46-2.25L98.46-2.25Q99.42-2.25 100.46-2.60L100.46-2.60L100.46-2.60Q101.51-2.95 102.38-3.38L102.38-3.38L102.38-3.38Q103.38-3.87 104.37-4.52L104.37-4.52" fill="#ffffff" stroke="none" stroke-width="none" transform="translate(-135.04167938232422,11.450665588378904)" style="fill: rgb(231, 246, 255);"></path></g><g class="path" style="opacity: 1; transform-origin: -15.043px -6.23438px 0px; animation: 1s linear -0.347368s infinite normal forwards running fade-73c50586-09fc-4de8-8194-5a0743e6c3c3;"><path d="M125.86 0L114.19 0L114.19-1.88L116.74-2.02L116.74-2.02Q117.07-2.02 117.43-2.36L117.43-2.36L117.43-2.36Q117.80-2.70 117.80-3.02L117.80-3.02L117.80-31.92L114.14-31.92L114.14-33.52L120.28-35.37L122.25-35.37L122.25-3.02L122.25-3.02Q122.25-2.70 122.59-2.36L122.59-2.36L122.59-2.36Q122.93-2.02 123.26-2.02L123.26-2.02L125.86-1.88L125.86 0" fill="#ffffff" stroke="none" stroke-width="none" transform="translate(-135.04167938232422,11.450665588378904)" style="fill: rgb(219, 236, 255);"></path></g><g class="path" style="opacity: 1; transform-origin: -0.380859px -19.5801px 0px; animation: 1s linear -0.312632s infinite normal forwards running fade-73c50586-09fc-4de8-8194-5a0743e6c3c3;"><path d="M137.60-31.05L137.60-31.05L137.60-31.05Q137.60-30.45 137.38-29.89L137.38-29.89L137.38-29.89Q137.16-29.34 136.76-28.95L136.76-28.95L136.76-28.95Q136.36-28.55 135.83-28.31L135.83-28.31L135.83-28.31Q135.30-28.08 134.70-28.08L134.70-28.08L134.70-28.08Q134.09-28.08 133.54-28.31L133.54-28.31L133.54-28.31Q132.98-28.55 132.59-28.95L132.59-28.95L132.59-28.95Q132.19-29.34 131.95-29.89L131.95-29.89L131.95-29.89Q131.72-30.45 131.72-31.05L131.72-31.05L131.72-31.05Q131.72-31.66 131.95-32.20L131.95-32.20L131.95-32.20Q132.19-32.74 132.59-33.14L132.59-33.14L132.59-33.14Q132.98-33.54 133.54-33.76L133.54-33.76L133.54-33.76Q134.09-33.98 134.70-33.98L134.70-33.98L134.70-33.98Q135.30-33.98 135.83-33.76L135.83-33.76L135.83-33.76Q136.36-33.54 136.76-33.14L136.76-33.14L136.76-33.14Q137.16-32.74 137.38-32.20L137.38-32.20L137.38-32.20Q137.60-31.66 137.60-31.05" fill="#ffffff" stroke="none" stroke-width="none" transform="translate(-135.04167938232422,11.450665588378904)" style="fill: rgb(211, 230, 255);"></path></g><g class="path" style="opacity: 1; transform-origin: -0.615234px -0.410156px 0px; animation: 1s linear -0.277895s infinite normal forwards running fade-73c50586-09fc-4de8-8194-5a0743e6c3c3;"><path d="M140.06 0L128.79 0L128.79-1.88L131.13-2.02L131.13-2.02Q131.58-2.06 131.86-2.34L131.86-2.34L131.86-2.34Q132.14-2.63 132.14-3.07L132.14-3.07L132.14-20.20L128.84-20.20L128.84-21.89L134.70-23.72L136.59-23.72L136.59-3.07L136.59-3.07Q136.59-2.63 136.89-2.34L136.89-2.34L136.89-2.34Q137.18-2.06 137.60-2.02L137.60-2.02L140.06-1.88L140.06 0" fill="#ffffff" stroke="none" stroke-width="none" transform="translate(-135.04167938232422,11.450665588378904)" style="fill: rgb(255, 255, 255);"></path></g><g class="path" style="opacity: 1; transform-origin: 17.7578px -0.115234px 0px; animation: 1s linear -0.243158s infinite normal forwards running fade-73c50586-09fc-4de8-8194-5a0743e6c3c3;"><path d="M162.26 0L143.34 0L143.34-2.55L156.05-20.88L147.70-20.88L147.70-20.88Q147.35-20.88 147.08-20.54L147.08-20.54L147.08-20.54Q146.81-20.20 146.74-19.88L146.74-19.88L146.27-16.31L143.81-16.31L143.81-23.13L161.58-23.13L161.58-21.16L148.43-2.30L158.11-2.30L158.11-2.30Q158.27-2.30 158.45-2.41L158.45-2.41L158.45-2.41Q158.63-2.53 158.78-2.70L158.78-2.70L158.78-2.70Q158.93-2.86 159.04-3.06L159.04-3.06L159.04-3.06Q159.14-3.26 159.16-3.45L159.16-3.45L159.66-7.24L162.26-7.24L162.26 0" fill="#ffffff" stroke="none" stroke-width="none" transform="translate(-135.04167938232422,11.450665588378904)" style="fill: rgb(245, 253, 255);"></path></g><g class="path" style="opacity: 1; transform-origin: 36.3496px -19.5801px 0px; animation: 1s linear -0.208421s infinite normal forwards running fade-73c50586-09fc-4de8-8194-5a0743e6c3c3;"><path d="M174.33-31.05L174.33-31.05L174.33-31.05Q174.33-30.45 174.11-29.89L174.11-29.89L174.11-29.89Q173.88-29.34 173.48-28.95L173.48-28.95L173.48-28.95Q173.09-28.55 172.56-28.31L172.56-28.31L172.56-28.31Q172.03-28.08 171.42-28.08L171.42-28.08L171.42-28.08Q170.81-28.08 170.26-28.31L170.26-28.31L170.26-28.31Q169.71-28.55 169.31-28.95L169.31-28.95L169.31-28.95Q168.91-29.34 168.68-29.89L168.68-29.89L168.68-29.89Q168.45-30.45 168.45-31.05L168.45-31.05L168.45-31.05Q168.45-31.66 168.68-32.20L168.68-32.20L168.68-32.20Q168.91-32.74 169.31-33.14L169.31-33.14L169.31-33.14Q169.71-33.54 170.26-33.76L170.26-33.76L170.26-33.76Q170.81-33.98 171.42-33.98L171.42-33.98L171.42-33.98Q172.03-33.98 172.56-33.76L172.56-33.76L172.56-33.76Q173.09-33.54 173.48-33.14L173.48-33.14L173.48-33.14Q173.88-32.74 174.11-32.20L174.11-32.20L174.11-32.20Q174.33-31.66 174.33-31.05" fill="#ffffff" stroke="none" stroke-width="none" transform="translate(-135.04167938232422,11.450665588378904)" style="fill: rgb(231, 246, 255);"></path></g><g class="path" style="opacity: 1; transform-origin: 36.1133px -0.410156px 0px; animation: 1s linear -0.173684s infinite normal forwards running fade-73c50586-09fc-4de8-8194-5a0743e6c3c3;"><path d="M176.79 0L165.52 0L165.52-1.88L167.86-2.02L167.86-2.02Q168.30-2.06 168.59-2.34L168.59-2.34L168.59-2.34Q168.87-2.63 168.87-3.07L168.87-3.07L168.87-20.20L165.56-20.20L165.56-21.89L171.42-23.72L173.32-23.72L173.32-3.07L173.32-3.07Q173.32-2.63 173.61-2.34L173.61-2.34L173.61-2.34Q173.91-2.06 174.33-2.02L174.33-2.02L176.79-1.88L176.79 0" fill="#ffffff" stroke="none" stroke-width="none" transform="translate(-135.04167938232422,11.450665588378904)" style="fill: rgb(219, 236, 255);"></path></g><g class="path" style="opacity: 1; transform-origin: 56.9922px -0.410156px 0px; animation: 1s linear -0.138947s infinite normal forwards running fade-73c50586-09fc-4de8-8194-5a0743e6c3c3;"><path d="M204.68 0L194.09 0L194.09-1.88L196.10-2.02L196.10-2.02Q196.52-2.06 196.82-2.34L196.82-2.34L196.82-2.34Q197.11-2.63 197.11-3.07L197.11-3.07L197.11-15.56L197.11-15.56Q197.11-17.84 196.05-19.02L196.05-19.02L196.05-19.02Q195-20.20 192.49-20.20L192.49-20.20L192.49-20.20Q191.11-20.20 189.77-19.82L189.77-19.82L189.77-19.82Q188.44-19.43 187.22-18.82L187.22-18.82L187.22-3.07L187.22-3.07Q187.22-2.63 187.50-2.34L187.50-2.34L187.50-2.34Q187.78-2.06 188.23-2.02L188.23-2.02L190.24-1.88L190.24 0L179.39 0L179.39-1.88L181.73-2.02L181.73-2.02Q182.18-2.06 182.46-2.34L182.46-2.34L182.46-2.34Q182.74-2.63 182.74-3.07L182.74-3.07L182.74-19.73L179.39-19.73L179.39-21.30L185.25-23.13L187.22-23.13L187.22-20.74L187.22-20.74Q188.23-21.30 189.27-21.84L189.27-21.84L189.27-21.84Q190.31-22.38 191.34-22.80L191.34-22.80L191.34-22.80Q192.38-23.23 193.34-23.47L193.34-23.47L193.34-23.47Q194.30-23.72 195.14-23.72L195.14-23.72L195.14-23.72Q198.28-23.72 199.92-21.77L199.92-21.77L199.92-21.77Q201.56-19.83 201.56-16.31L201.56-16.31L201.56-3.07L201.56-3.07Q201.56-2.63 201.86-2.34L201.86-2.34L201.86-2.34Q202.15-2.06 202.57-2.02L202.57-2.02L204.68-1.88L204.68 0" fill="#ffffff" stroke="none" stroke-width="none" transform="translate(-135.04167938232422,11.450665588378904)" style="fill: rgb(211, 230, 255);"></path></g><g class="path" style="opacity: 1; transform-origin: 83.6074px 5.08594px 0px; animation: 1s linear -0.104211s infinite normal forwards running fade-73c50586-09fc-4de8-8194-5a0743e6c3c3;"><path d="M230.02-19.92L225.23-19.92L225.23-19.92Q225.77-19.05 226.15-18.04L226.15-18.04L226.15-18.04Q226.52-17.02 226.52-15.61L226.52-15.61L226.52-15.61Q226.52-13.80 225.75-12.40L225.75-12.40L225.75-12.40Q224.98-10.99 223.68-10.01L223.68-10.01L223.68-10.01Q222.38-9.02 220.68-8.51L220.68-8.51L220.68-8.51Q218.98-7.99 217.10-7.99L217.10-7.99L216.63-7.99L216.63-7.99Q216.40-7.99 216.16-8.02L216.16-8.02L216.16-8.02Q215.86-7.52 215.75-6.96L215.75-6.96L215.75-6.96Q215.65-6.40 215.65-5.91L215.65-5.91L215.65-5.91Q215.65-5.46 215.70-5.16L215.70-5.16L215.70-5.16Q215.74-4.85 215.77-4.80L215.77-4.80L216.45-4.73L216.45-4.73Q217.57-4.62 218.92-4.46L218.92-4.46L218.92-4.46Q220.27-4.31 221.64-4.02L221.64-4.02L221.64-4.02Q223.01-3.73 224.30-3.27L224.30-3.27L224.30-3.27Q225.59-2.81 226.58-2.12L226.58-2.12L226.58-2.12Q227.58-1.43 228.18-0.43L228.18-0.43L228.18-0.43Q228.77 0.56 228.77 1.92L228.77 1.92L228.77 1.92Q228.77 3.63 227.80 5.26L227.80 5.26L227.80 5.26Q226.83 6.89 225.14 8.17L225.14 8.17L225.14 8.17Q223.45 9.45 221.18 10.22L221.18 10.22L221.18 10.22Q218.91 10.99 216.30 10.99L216.30 10.99L216.30 10.99Q214.15 10.99 212.47 10.48L212.47 10.48L212.47 10.48Q210.80 9.96 209.65 9.05L209.65 9.05L209.65 9.05Q208.50 8.13 207.89 6.88L207.89 6.88L207.89 6.88Q207.28 5.63 207.28 4.17L207.28 4.17L207.28 4.17Q207.28 3.12 207.59 2.17L207.59 2.17L207.59 2.17Q207.89 1.22 208.52 0.46L208.52 0.46L208.52 0.46Q209.16-0.30 210.11-0.86L210.11-0.86L210.11-0.86Q211.05-1.41 212.37-1.64L212.37-1.64L212.37-1.64Q212.23-2.02 212.13-2.26L212.13-2.26L212.13-2.26Q212.04-2.51 211.98-2.73L211.98-2.73L211.98-2.73Q211.92-2.95 211.90-3.20L211.90-3.20L211.90-3.20Q211.88-3.45 211.88-3.84L211.88-3.84L211.88-3.84Q211.88-4.78 212.45-5.92L212.45-5.92L212.45-5.92Q213.02-7.05 214.29-8.34L214.29-8.34L214.29-8.34Q213.09-8.63 212.02-9.23L212.02-9.23L212.02-9.23Q210.94-9.84 210.12-10.77L210.12-10.77L210.12-10.77Q209.30-11.70 208.82-12.90L208.82-12.90L208.82-12.90Q208.34-14.11 208.34-15.56L208.34-15.56L208.34-15.56Q208.34-17.46 209.04-18.97L209.04-18.97L209.04-18.97Q209.74-20.48 211.01-21.54L211.01-21.54L211.01-21.54Q212.27-22.59 214.04-23.16L214.04-23.16L214.04-23.16Q215.81-23.72 217.97-23.72L217.97-23.72L217.97-23.72Q218.81-23.72 219.62-23.58L219.62-23.58L219.62-23.58Q220.43-23.44 221.14-23.21L221.14-23.21L221.14-23.21Q221.86-22.99 222.47-22.73L222.47-22.73L222.47-22.73Q223.08-22.48 223.55-22.27L223.55-22.27L230.02-22.27L230.02-19.92zM224.65 3.21L224.65 3.21L224.65 3.21Q224.65 2.23 224.16 1.54L224.16 1.54L224.16 1.54Q223.66 0.84 222.86 0.40L222.86 0.40L222.86 0.40Q222.05-0.05 221.03-0.32L221.03-0.32L221.03-0.32Q220.01-0.59 218.96-0.76L218.96-0.76L218.96-0.76Q217.92-0.94 216.94-1.04L216.94-1.04L216.94-1.04Q215.95-1.15 215.25-1.29L215.25-1.29L215.25-1.29Q214.20-0.91 213.49-0.39L213.49-0.39L213.49-0.39Q212.79 0.14 212.37 0.75L212.37 0.75L212.37 0.75Q211.95 1.36 211.77 1.99L211.77 1.99L211.77 1.99Q211.59 2.63 211.59 3.21L211.59 3.21L211.59 3.21Q211.59 4.08 211.97 5.06L211.97 5.06L211.97 5.06Q212.34 6.05 213.12 6.87L213.12 6.87L213.12 6.87Q213.89 7.69 215.07 8.24L215.07 8.24L215.07 8.24Q216.26 8.79 217.88 8.79L217.88 8.79L217.88 8.79Q219.59 8.79 220.86 8.24L220.86 8.24L220.86 8.24Q222.14 7.69 222.98 6.87L222.98 6.87L222.98 6.87Q223.83 6.05 224.24 5.06L224.24 5.06L224.24 5.06Q224.65 4.08 224.65 3.21zM221.95-15.89L221.95-15.89L221.95-15.89Q221.95-17.02 221.66-18.08L221.66-18.08L221.66-18.08Q221.37-19.15 220.80-19.96L220.80-19.96L220.80-19.96Q220.24-20.77 219.41-21.26L219.41-21.26L219.41-21.26Q218.58-21.75 217.50-21.75L217.50-21.75L217.50-21.75Q216.49-21.75 215.65-21.35L215.65-21.35L215.65-21.35Q214.80-20.95 214.21-20.19L214.21-20.19L214.21-20.19Q213.61-19.43 213.27-18.33L213.27-18.33L213.27-18.33Q212.93-17.23 212.93-15.84L212.93-15.84L212.93-15.84Q212.93-14.65 213.22-13.58L213.22-13.58L213.22-13.58Q213.52-12.52 214.09-11.72L214.09-11.72L214.09-11.72Q214.66-10.92 215.52-10.45L215.52-10.45L215.52-10.45Q216.38-9.98 217.50-9.98L217.50-9.98L217.50-9.98Q218.58-9.98 219.41-10.45L219.41-10.45L219.41-10.45Q220.24-10.92 220.80-11.72L220.80-11.72L220.80-11.72Q221.37-12.52 221.66-13.59L221.66-13.59L221.66-13.59Q221.95-14.67 221.95-15.89" fill="#ffffff" stroke="none" stroke-width="none" transform="translate(-135.04167938232422,11.450665588378904)" style="fill: rgb(255, 255, 255);"></path></g><g class="path" style="opacity: 1; transform-origin: 102.318px 7.75977px 0px; animation: 1s linear -0.0694737s infinite normal forwards running fade-73c50586-09fc-4de8-8194-5a0743e6c3c3;"><path d="M241.05-3.70L241.05-3.70L241.05-3.70Q241.05-2.93 240.77-2.25L240.77-2.25L240.77-2.25Q240.49-1.57 239.99-1.08L239.99-1.08L239.99-1.08Q239.48-0.59 238.82-0.29L238.82-0.29L238.82-0.29Q238.15 0 237.38 0L237.38 0L237.38 0Q236.60 0 235.92-0.29L235.92-0.29L235.92-0.29Q235.24-0.59 234.74-1.08L234.74-1.08L234.74-1.08Q234.23-1.57 233.95-2.25L233.95-2.25L233.95-2.25Q233.67-2.93 233.67-3.70L233.67-3.70L233.67-3.70Q233.67-4.48 233.95-5.14L233.95-5.14L233.95-5.14Q234.23-5.81 234.74-6.32L234.74-6.32L234.74-6.32Q235.24-6.82 235.92-7.10L235.92-7.10L235.92-7.10Q236.60-7.38 237.38-7.38L237.38-7.38L237.38-7.38Q238.15-7.38 238.82-7.10L238.82-7.10L238.82-7.10Q239.48-6.82 239.99-6.32L239.99-6.32L239.99-6.32Q240.49-5.81 240.77-5.14L240.77-5.14L240.77-5.14Q241.05-4.48 241.05-3.70" fill="#ffffff" stroke="none" stroke-width="none" transform="translate(-135.04167938232422,11.450665588378904)" style="fill: rgb(245, 253, 255);"></path></g><g class="path" style="opacity: 1; transform-origin: 117.627px 7.75977px 0px; animation: 1s linear -0.0347368s infinite normal forwards running fade-73c50586-09fc-4de8-8194-5a0743e6c3c3;"><path d="M256.36-3.70L256.36-3.70L256.36-3.70Q256.36-2.93 256.08-2.25L256.08-2.25L256.08-2.25Q255.80-1.57 255.29-1.08L255.29-1.08L255.29-1.08Q254.79-0.59 254.12-0.29L254.12-0.29L254.12-0.29Q253.45 0 252.68 0L252.68 0L252.68 0Q251.91 0 251.23-0.29L251.23-0.29L251.23-0.29Q250.55-0.59 250.04-1.08L250.04-1.08L250.04-1.08Q249.54-1.57 249.26-2.25L249.26-2.25L249.26-2.25Q248.98-2.93 248.98-3.70L248.98-3.70L248.98-3.70Q248.98-4.48 249.26-5.14L249.26-5.14L249.26-5.14Q249.54-5.81 250.04-6.32L250.04-6.32L250.04-6.32Q250.55-6.82 251.23-7.10L251.23-7.10L251.23-7.10Q251.91-7.38 252.68-7.38L252.68-7.38L252.68-7.38Q253.45-7.38 254.12-7.10L254.12-7.10L254.12-7.10Q254.79-6.82 255.29-6.32L255.29-6.32L255.29-6.32Q255.80-5.81 256.08-5.14L256.08-5.14L256.08-5.14Q256.36-4.48 256.36-3.70" fill="#ffffff" stroke="none" stroke-width="none" transform="translate(-135.04167938232422,11.450665588378904)" style="fill: rgb(231, 246, 255);"></path></g><g class="path" style="opacity: 1; transform-origin: 132.928px 7.75977px 0px; animation: 1s linear 0s infinite normal forwards running fade-73c50586-09fc-4de8-8194-5a0743e6c3c3;"><path d="M271.66-3.70L271.66-3.70L271.66-3.70Q271.66-2.93 271.38-2.25L271.38-2.25L271.38-2.25Q271.10-1.57 270.60-1.08L270.60-1.08L270.60-1.08Q270.09-0.59 269.43-0.29L269.43-0.29L269.43-0.29Q268.76 0 267.98 0L267.98 0L267.98 0Q267.21 0 266.53-0.29L266.53-0.29L266.53-0.29Q265.85-0.59 265.35-1.08L265.35-1.08L265.35-1.08Q264.84-1.57 264.56-2.25L264.56-2.25L264.56-2.25Q264.28-2.93 264.28-3.70L264.28-3.70L264.28-3.70Q264.28-4.48 264.56-5.14L264.56-5.14L264.56-5.14Q264.84-5.81 265.35-6.32L265.35-6.32L265.35-6.32Q265.85-6.82 266.53-7.10L266.53-7.10L266.53-7.10Q267.21-7.38 267.98-7.38L267.98-7.38L267.98-7.38Q268.76-7.38 269.43-7.10L269.43-7.10L269.43-7.10Q270.09-6.82 270.60-6.32L270.60-6.32L270.60-6.32Q271.10-5.81 271.38-5.14L271.38-5.14L271.38-5.14Q271.66-4.48 271.66-3.70" fill="#ffffff" stroke="none" stroke-width="none" transform="translate(-135.04167938232422,11.450665588378904)" style="fill: rgb(219, 236, 255);"></path></g></g>
</g>
</g>
<style id="fade-73c50586-09fc-4de8-8194-5a0743e6c3c3" data-anikit="">@keyframes fade-73c50586-09fc-4de8-8194-5a0743e6c3c3
{
  0% {
    animation-timing-function: cubic-bezier(0.2057,0.573,0.3723,0.9184);
    opacity: 1;
  }
  100% {
    opacity: 0;
  }
}</style></svg>