<?xml version="1.0" encoding="utf-8"?>
<svg xmlns="http://www.w3.org/2000/svg" style="margin: auto; background: rgb(45, 45, 45) none repeat scroll 0% 0%; display: block; shape-rendering: auto;" width="215" height="50" preserveAspectRatio="xMidYMid">
<style type="text/css">
  text {
    text-anchor: middle; font-size: 48px; opacity: 0;
  }
</style>
<g style="transform-origin:107.5px 25px;transform:scale(1)">
<g transform="translate(107.5,25)">
  <g transform="translate(0,0)"><g class="path" style="opacity: 1; transform-origin: -91.8418px -3.17578px 0px; animation: 1s linear -0.6s infinite normal forwards running fade-73c50586-09fc-4de8-8194-5a0743e6c3c3;"><path d="M24.63 0L1.29 0L1.29-2.06L4.08-2.25L4.08-2.25Q4.59-2.30 4.84-2.63L4.84-2.63L4.84-2.63Q5.09-2.95 5.09-3.30L5.09-3.30L5.09-28.90L5.09-28.90Q5.09-29.25 4.84-29.58L4.84-29.58L4.84-29.58Q4.59-29.91 4.08-29.95L4.08-29.95L1.29-30.14L1.29-32.20L13.55-32.20L13.55-30.14L10.99-29.95L10.99-29.95Q10.48-29.91 10.21-29.58L10.21-29.58L10.21-29.58Q9.94-29.25 9.94-28.90L9.94-28.90L9.94-2.34L20.02-2.34L20.02-2.34Q20.34-2.34 20.68-2.59L20.68-2.59L20.68-2.59Q21.02-2.84 21.07-3.16L21.07-3.16L21.84-8.93L24.63-8.93L24.63 0" fill="#ffffff" stroke="none" stroke-width="none" transform="translate(-104.79998016357422,12.924604936079556)" style="fill: rgb(255, 255, 255);"></path></g><g class="path" style="opacity: 1; transform-origin: -66.2656px 1.35938px 0px; animation: 1s linear -0.54s infinite normal forwards running fade-73c50586-09fc-4de8-8194-5a0743e6c3c3;"><path d="M49.95-11.53L49.95-11.53L49.95-11.53Q49.95-8.98 49.14-6.76L49.14-6.76L49.14-6.76Q48.33-4.55 46.84-2.92L46.84-2.92L46.84-2.92Q45.35-1.29 43.23-0.35L43.23-0.35L43.23-0.35Q41.11 0.59 38.48 0.59L38.48 0.59L38.48 0.59Q35.86 0.59 33.75-0.34L33.75-0.34L33.75-0.34Q31.64-1.27 30.16-2.88L30.16-2.88L30.16-2.88Q28.69-4.50 27.90-6.71L27.90-6.71L27.90-6.71Q27.12-8.93 27.12-11.53L27.12-11.53L27.12-11.53Q27.12-14.09 27.91-16.31L27.91-16.31L27.91-16.31Q28.71-18.54 30.21-20.19L30.21-20.19L30.21-20.19Q31.71-21.84 33.83-22.78L33.83-22.78L33.83-22.78Q35.95-23.72 38.63-23.72L38.63-23.72L38.63-23.72Q41.30-23.72 43.41-22.76L43.41-22.76L43.41-22.76Q45.52-21.80 46.97-20.14L46.97-20.14L46.97-20.14Q48.42-18.49 49.18-16.28L49.18-16.28L49.18-16.28Q49.95-14.06 49.95-11.53zM44.95-11.58L44.95-11.58L44.95-11.58Q44.95-13.55 44.57-15.35L44.57-15.35L44.57-15.35Q44.18-17.16 43.38-18.54L43.38-18.54L43.38-18.54Q42.59-19.92 41.39-20.74L41.39-20.74L41.39-20.74Q40.20-21.56 38.58-21.56L38.58-21.56L38.58-21.56Q36.91-21.56 35.70-20.74L35.70-20.74L35.70-20.74Q34.48-19.92 33.69-18.54L33.69-18.54L33.69-18.54Q32.91-17.16 32.53-15.35L32.53-15.35L32.53-15.35Q32.16-13.55 32.16-11.58L32.16-11.58L32.16-11.58Q32.16-9.63 32.54-7.83L32.54-7.83L32.54-7.83Q32.93-6.02 33.73-4.64L33.73-4.64L33.73-4.64Q34.52-3.26 35.72-2.43L35.72-2.43L35.72-2.43Q36.91-1.59 38.53-1.59L38.53-1.59L38.53-1.59Q40.17-1.59 41.39-2.41L41.39-2.41L41.39-2.41Q42.61-3.23 43.39-4.62L43.39-4.62L43.39-4.62Q44.18-6 44.57-7.80L44.57-7.80L44.57-7.80Q44.95-9.61 44.95-11.58" fill="#ffffff" stroke="none" stroke-width="none" transform="translate(-104.79998016357422,12.924604936079556)" style="fill: rgb(245, 253, 255);"></path></g><g class="path" style="opacity: 1; transform-origin: -40.5801px 1.35938px 0px; animation: 1s linear -0.48s infinite normal forwards running fade-73c50586-09fc-4de8-8194-5a0743e6c3c3;"><path d="M75.21 0L68.11 0L67.48-2.84L67.48-2.84Q66.21-1.88 64.88-1.13L64.88-1.13L64.88-1.13Q64.29-0.80 63.63-0.49L63.63-0.49L63.63-0.49Q62.98-0.19 62.29 0.06L62.29 0.06L62.29 0.06Q61.59 0.30 60.88 0.45L60.88 0.45L60.88 0.45Q60.16 0.59 59.46 0.59L59.46 0.59L59.46 0.59Q58.15 0.59 57.01 0.14L57.01 0.14L57.01 0.14Q55.88-0.30 55.03-1.15L55.03-1.15L55.03-1.15Q54.19-1.99 53.71-3.19L53.71-3.19L53.71-3.19Q53.23-4.38 53.23-5.91L53.23-5.91L53.23-5.91Q53.23-6.80 53.40-7.59L53.40-7.59L53.40-7.59Q53.58-8.39 54.12-9.14L54.12-9.14L54.12-9.14Q54.66-9.89 55.63-10.58L55.63-10.58L55.63-10.58Q56.60-11.27 58.18-11.95L58.18-11.95L58.18-11.95Q59.77-12.63 62.05-13.30L62.05-13.30L62.05-13.30Q64.34-13.97 67.48-14.65L67.48-14.65L67.48-16.71L67.48-16.71Q67.48-19.13 66.40-20.29L66.40-20.29L66.40-20.29Q65.32-21.45 63-21.45L63-21.45L63-21.45Q61.73-21.45 60.84-21.21L60.84-21.21L60.84-21.21Q59.95-20.98 59.60-20.84L59.60-20.84L59.60-16.66L56.11-16.66L56.11-16.66Q55.78-16.66 55.46-16.71L55.46-16.71L55.46-16.71Q55.15-16.76 54.89-16.91L54.89-16.91L54.89-16.91Q54.63-17.06 54.48-17.33L54.48-17.33L54.48-17.33Q54.33-17.60 54.33-18.05L54.33-18.05L54.33-18.05Q54.33-19.52 55.22-20.59L55.22-20.59L55.22-20.59Q56.11-21.66 57.54-22.36L57.54-22.36L57.54-22.36Q58.97-23.06 60.75-23.39L60.75-23.39L60.75-23.39Q62.53-23.72 64.31-23.72L64.31-23.72L64.31-23.72Q66.54-23.72 68.00-23.18L68.00-23.18L68.00-23.18Q69.47-22.64 70.32-21.68L70.32-21.68L70.32-21.68Q71.18-20.72 71.53-19.41L71.53-19.41L71.53-19.41Q71.88-18.09 71.88-16.52L71.88-16.52L71.88-3.07L71.88-3.07Q71.88-2.63 72.18-2.34L72.18-2.34L72.18-2.34Q72.47-2.06 72.89-2.02L72.89-2.02L75.21-1.88L75.21 0zM67.48-4.52L67.48-12.82L67.48-12.82Q64.24-12 62.34-11.20L62.34-11.20L62.34-11.20Q60.45-10.41 59.47-9.60L59.47-9.60L59.47-9.60Q58.50-8.79 58.23-7.96L58.23-7.96L58.23-7.96Q57.96-7.13 57.96-6.23L57.96-6.23L57.96-6.23Q57.96-5.48 58.21-4.77L58.21-4.77L58.21-4.77Q58.45-4.05 58.91-3.49L58.91-3.49L58.91-3.49Q59.37-2.93 60.04-2.59L60.04-2.59L60.04-2.59Q60.70-2.25 61.57-2.25L61.57-2.25L61.57-2.25Q62.53-2.25 63.57-2.60L63.57-2.60L63.57-2.60Q64.62-2.95 65.48-3.38L65.48-3.38L65.48-3.38Q66.49-3.87 67.48-4.52L67.48-4.52" fill="#ffffff" stroke="none" stroke-width="none" transform="translate(-104.79998016357422,12.924604936079556)" style="fill: rgb(231, 246, 255);"></path></g><g class="path" style="opacity: 1; transform-origin: -15.0547px -4.46484px 0px; animation: 1s linear -0.42s infinite normal forwards running fade-73c50586-09fc-4de8-8194-5a0743e6c3c3;"><path d="M101.84 0L94.29 0L94.29-2.55L94.29-2.55Q93.47-1.92 92.59-1.35L92.59-1.35L92.59-1.35Q91.71-0.77 90.79-0.35L90.79-0.35L90.79-0.35Q89.86 0.07 88.89 0.33L88.89 0.33L88.89 0.33Q87.91 0.59 86.86 0.59L86.86 0.59L86.86 0.59Q84.45 0.59 82.70-0.46L82.70-0.46L82.70-0.46Q80.95-1.50 79.83-3.15L79.83-3.15L79.83-3.15Q78.70-4.80 78.18-6.86L78.18-6.86L78.18-6.86Q77.65-8.91 77.65-10.95L77.65-10.95L77.65-10.95Q77.65-13.38 78.40-15.69L78.40-15.69L78.40-15.69Q79.15-18 80.67-19.78L80.67-19.78L80.67-19.78Q82.20-21.56 84.49-22.64L84.49-22.64L84.49-22.64Q86.79-23.72 89.88-23.72L89.88-23.72L89.88-23.72Q90.45-23.72 91.10-23.65L91.10-23.65L91.10-23.65Q91.76-23.58 92.38-23.50L92.38-23.50L92.38-23.50Q93-23.41 93.50-23.31L93.50-23.31L93.50-23.31Q94.01-23.20 94.29-23.13L94.29-23.13L94.29-31.92L90.66-31.92L90.66-33.52L96.84-35.37L98.77-35.37L98.77-3.07L98.77-3.07Q98.77-2.63 99.05-2.34L99.05-2.34L99.05-2.34Q99.33-2.06 99.77-2.02L99.77-2.02L101.84-1.88L101.84 0zM94.29-4.36L94.29-20.70L94.29-20.70Q93.98-20.79 93.50-20.92L93.50-20.92L93.50-20.92Q93.02-21.05 92.47-21.15L92.47-21.15L92.47-21.15Q91.92-21.26 91.32-21.33L91.32-21.33L91.32-21.33Q90.73-21.40 90.21-21.40L90.21-21.40L90.21-21.40Q88.43-21.40 86.98-20.71L86.98-20.71L86.98-20.71Q85.52-20.02 84.50-18.76L84.50-18.76L84.50-18.76Q83.48-17.51 82.93-15.73L82.93-15.73L82.93-15.73Q82.38-13.95 82.38-11.77L82.38-11.77L82.38-11.77Q82.38-9.80 82.85-8.14L82.85-8.14L82.85-8.14Q83.32-6.49 84.21-5.27L84.21-5.27L84.21-5.27Q85.10-4.05 86.39-3.38L86.39-3.38L86.39-3.38Q87.68-2.70 89.34-2.70L89.34-2.70L89.34-2.70Q90.07-2.70 90.75-2.85L90.75-2.85L90.75-2.85Q91.43-3 92.06-3.25L92.06-3.25L92.06-3.25Q92.70-3.49 93.26-3.79L93.26-3.79L93.26-3.79Q93.82-4.08 94.29-4.36L94.29-4.36" fill="#ffffff" stroke="none" stroke-width="none" transform="translate(-104.79998016357422,12.924604936079556)" style="fill: rgb(219, 236, 255);"></path></g><g class="path" style="opacity: 1; transform-origin: 5.79102px -18.1055px 0px; animation: 1s linear -0.36s infinite normal forwards running fade-73c50586-09fc-4de8-8194-5a0743e6c3c3;"><path d="M113.53-31.05L113.53-31.05L113.53-31.05Q113.53-30.45 113.31-29.89L113.31-29.89L113.31-29.89Q113.09-29.34 112.69-28.95L112.69-28.95L112.69-28.95Q112.29-28.55 111.76-28.31L111.76-28.31L111.76-28.31Q111.23-28.08 110.63-28.08L110.63-28.08L110.63-28.08Q110.02-28.08 109.46-28.31L109.46-28.31L109.46-28.31Q108.91-28.55 108.52-28.95L108.52-28.95L108.52-28.95Q108.12-29.34 107.88-29.89L107.88-29.89L107.88-29.89Q107.65-30.45 107.65-31.05L107.65-31.05L107.65-31.05Q107.65-31.66 107.88-32.20L107.88-32.20L107.88-32.20Q108.12-32.74 108.52-33.14L108.52-33.14L108.52-33.14Q108.91-33.54 109.46-33.76L109.46-33.76L109.46-33.76Q110.02-33.98 110.63-33.98L110.63-33.98L110.63-33.98Q111.23-33.98 111.76-33.76L111.76-33.76L111.76-33.76Q112.29-33.54 112.69-33.14L112.69-33.14L112.69-33.14Q113.09-32.74 113.31-32.20L113.31-32.20L113.31-32.20Q113.53-31.66 113.53-31.05" fill="#ffffff" stroke="none" stroke-width="none" transform="translate(-104.79998016357422,12.924604936079556)" style="fill: rgb(211, 230, 255);"></path></g><g class="path" style="opacity: 1; transform-origin: 5.55664px 1.06445px 0px; animation: 1s linear -0.3s infinite normal forwards running fade-73c50586-09fc-4de8-8194-5a0743e6c3c3;"><path d="M115.99 0L104.72 0L104.72-1.88L107.06-2.02L107.06-2.02Q107.51-2.06 107.79-2.34L107.79-2.34L107.79-2.34Q108.07-2.63 108.07-3.07L108.07-3.07L108.07-20.20L104.77-20.20L104.77-21.89L110.63-23.72L112.52-23.72L112.52-3.07L112.52-3.07Q112.52-2.63 112.82-2.34L112.82-2.34L112.82-2.34Q113.11-2.06 113.53-2.02L113.53-2.02L115.99-1.88L115.99 0" fill="#ffffff" stroke="none" stroke-width="none" transform="translate(-104.79998016357422,12.924604936079556)" style="fill: rgb(255, 255, 255);"></path></g><g class="path" style="opacity: 1; transform-origin: 26.4336px 1.06445px 0px; animation: 1s linear -0.24s infinite normal forwards running fade-73c50586-09fc-4de8-8194-5a0743e6c3c3;"><path d="M143.88 0L133.29 0L133.29-1.88L135.30-2.02L135.30-2.02Q135.73-2.06 136.02-2.34L136.02-2.34L136.02-2.34Q136.31-2.63 136.31-3.07L136.31-3.07L136.31-15.56L136.31-15.56Q136.31-17.84 135.26-19.02L135.26-19.02L135.26-19.02Q134.20-20.20 131.70-20.20L131.70-20.20L131.70-20.20Q130.31-20.20 128.98-19.82L128.98-19.82L128.98-19.82Q127.64-19.43 126.42-18.82L126.42-18.82L126.42-3.07L126.42-3.07Q126.42-2.63 126.70-2.34L126.70-2.34L126.70-2.34Q126.98-2.06 127.43-2.02L127.43-2.02L129.45-1.88L129.45 0L118.59 0L118.59-1.88L120.94-2.02L120.94-2.02Q121.38-2.06 121.66-2.34L121.66-2.34L121.66-2.34Q121.95-2.63 121.95-3.07L121.95-3.07L121.95-19.73L118.59-19.73L118.59-21.30L124.45-23.13L126.42-23.13L126.42-20.74L126.42-20.74Q127.43-21.30 128.47-21.84L128.47-21.84L128.47-21.84Q129.52-22.38 130.55-22.80L130.55-22.80L130.55-22.80Q131.58-23.23 132.54-23.47L132.54-23.47L132.54-23.47Q133.50-23.72 134.34-23.72L134.34-23.72L134.34-23.72Q137.48-23.72 139.13-21.77L139.13-21.77L139.13-21.77Q140.77-19.83 140.77-16.31L140.77-16.31L140.77-3.07L140.77-3.07Q140.77-2.63 141.06-2.34L141.06-2.34L141.06-2.34Q141.35-2.06 141.77-2.02L141.77-2.02L143.88-1.88L143.88 0" fill="#ffffff" stroke="none" stroke-width="none" transform="translate(-104.79998016357422,12.924604936079556)" style="fill: rgb(245, 253, 255);"></path></g><g class="path" style="opacity: 1; transform-origin: 53.0508px 6.55859px 0px; animation: 1s linear -0.18s infinite normal forwards running fade-73c50586-09fc-4de8-8194-5a0743e6c3c3;"><path d="M169.22-19.92L164.44-19.92L164.44-19.92Q164.98-19.05 165.35-18.04L165.35-18.04L165.35-18.04Q165.73-17.02 165.73-15.61L165.73-15.61L165.73-15.61Q165.73-13.80 164.95-12.40L164.95-12.40L164.95-12.40Q164.18-10.99 162.88-10.01L162.88-10.01L162.88-10.01Q161.58-9.02 159.88-8.51L159.88-8.51L159.88-8.51Q158.18-7.99 156.30-7.99L156.30-7.99L155.84-7.99L155.84-7.99Q155.60-7.99 155.37-8.02L155.37-8.02L155.37-8.02Q155.06-7.52 154.96-6.96L154.96-6.96L154.96-6.96Q154.85-6.40 154.85-5.91L154.85-5.91L154.85-5.91Q154.85-5.46 154.90-5.16L154.90-5.16L154.90-5.16Q154.95-4.85 154.97-4.80L154.97-4.80L155.65-4.73L155.65-4.73Q156.77-4.62 158.12-4.46L158.12-4.46L158.12-4.46Q159.47-4.31 160.84-4.02L160.84-4.02L160.84-4.02Q162.21-3.73 163.50-3.27L163.50-3.27L163.50-3.27Q164.79-2.81 165.79-2.12L165.79-2.12L165.79-2.12Q166.78-1.43 167.38-0.43L167.38-0.43L167.38-0.43Q167.98 0.56 167.98 1.92L167.98 1.92L167.98 1.92Q167.98 3.63 167.00 5.26L167.00 5.26L167.00 5.26Q166.03 6.89 164.34 8.17L164.34 8.17L164.34 8.17Q162.66 9.45 160.38 10.22L160.38 10.22L160.38 10.22Q158.11 10.99 155.51 10.99L155.51 10.99L155.51 10.99Q153.35 10.99 151.68 10.48L151.68 10.48L151.68 10.48Q150 9.96 148.85 9.05L148.85 9.05L148.85 9.05Q147.70 8.13 147.09 6.88L147.09 6.88L147.09 6.88Q146.48 5.63 146.48 4.17L146.48 4.17L146.48 4.17Q146.48 3.12 146.79 2.17L146.79 2.17L146.79 2.17Q147.09 1.22 147.73 0.46L147.73 0.46L147.73 0.46Q148.36-0.30 149.31-0.86L149.31-0.86L149.31-0.86Q150.26-1.41 151.57-1.64L151.57-1.64L151.57-1.64Q151.43-2.02 151.34-2.26L151.34-2.26L151.34-2.26Q151.24-2.51 151.18-2.73L151.18-2.73L151.18-2.73Q151.13-2.95 151.10-3.20L151.10-3.20L151.10-3.20Q151.08-3.45 151.08-3.84L151.08-3.84L151.08-3.84Q151.08-4.78 151.65-5.92L151.65-5.92L151.65-5.92Q152.23-7.05 153.49-8.34L153.49-8.34L153.49-8.34Q152.30-8.63 151.22-9.23L151.22-9.23L151.22-9.23Q150.14-9.84 149.32-10.77L149.32-10.77L149.32-10.77Q148.50-11.70 148.02-12.90L148.02-12.90L148.02-12.90Q147.54-14.11 147.54-15.56L147.54-15.56L147.54-15.56Q147.54-17.46 148.24-18.97L148.24-18.97L148.24-18.97Q148.95-20.48 150.21-21.54L150.21-21.54L150.21-21.54Q151.48-22.59 153.25-23.16L153.25-23.16L153.25-23.16Q155.02-23.72 157.17-23.72L157.17-23.72L157.17-23.72Q158.02-23.72 158.82-23.58L158.82-23.58L158.82-23.58Q159.63-23.44 160.35-23.21L160.35-23.21L160.35-23.21Q161.06-22.99 161.67-22.73L161.67-22.73L161.67-22.73Q162.28-22.48 162.75-22.27L162.75-22.27L169.22-22.27L169.22-19.92zM163.85 3.21L163.85 3.21L163.85 3.21Q163.85 2.23 163.36 1.54L163.36 1.54L163.36 1.54Q162.87 0.84 162.06 0.40L162.06 0.40L162.06 0.40Q161.25-0.05 160.23-0.32L160.23-0.32L160.23-0.32Q159.21-0.59 158.17-0.76L158.17-0.76L158.17-0.76Q157.13-0.94 156.14-1.04L156.14-1.04L156.14-1.04Q155.16-1.15 154.45-1.29L154.45-1.29L154.45-1.29Q153.40-0.91 152.70-0.39L152.70-0.39L152.70-0.39Q151.99 0.14 151.57 0.75L151.57 0.75L151.57 0.75Q151.15 1.36 150.97 1.99L150.97 1.99L150.97 1.99Q150.80 2.63 150.80 3.21L150.80 3.21L150.80 3.21Q150.80 4.08 151.17 5.06L151.17 5.06L151.17 5.06Q151.55 6.05 152.32 6.87L152.32 6.87L152.32 6.87Q153.09 7.69 154.28 8.24L154.28 8.24L154.28 8.24Q155.46 8.79 157.08 8.79L157.08 8.79L157.08 8.79Q158.79 8.79 160.07 8.24L160.07 8.24L160.07 8.24Q161.34 7.69 162.19 6.87L162.19 6.87L162.19 6.87Q163.03 6.05 163.44 5.06L163.44 5.06L163.44 5.06Q163.85 4.08 163.85 3.21zM161.16-15.89L161.16-15.89L161.16-15.89Q161.16-17.02 160.86-18.08L160.86-18.08L160.86-18.08Q160.57-19.15 160.01-19.96L160.01-19.96L160.01-19.96Q159.45-20.77 158.61-21.26L158.61-21.26L158.61-21.26Q157.78-21.75 156.70-21.75L156.70-21.75L156.70-21.75Q155.70-21.75 154.85-21.35L154.85-21.35L154.85-21.35Q154.01-20.95 153.41-20.19L153.41-20.19L153.41-20.19Q152.81-19.43 152.47-18.33L152.47-18.33L152.47-18.33Q152.13-17.23 152.13-15.84L152.13-15.84L152.13-15.84Q152.13-14.65 152.43-13.58L152.43-13.58L152.43-13.58Q152.72-12.52 153.29-11.72L153.29-11.72L153.29-11.72Q153.87-10.92 154.72-10.45L154.72-10.45L154.72-10.45Q155.58-9.98 156.70-9.98L156.70-9.98L156.70-9.98Q157.78-9.98 158.61-10.45L158.61-10.45L158.61-10.45Q159.45-10.92 160.01-11.72L160.01-11.72L160.01-11.72Q160.57-12.52 160.86-13.59L160.86-13.59L160.86-13.59Q161.16-14.67 161.16-15.89" fill="#ffffff" stroke="none" stroke-width="none" transform="translate(-104.79998016357422,12.924604936079556)" style="fill: rgb(231, 246, 255);"></path></g><g class="path" style="opacity: 1; transform-origin: 71.7695px 9.23438px 0px; animation: 1s linear -0.12s infinite normal forwards running fade-73c50586-09fc-4de8-8194-5a0743e6c3c3;"><path d="M180.26-3.70L180.26-3.70L180.26-3.70Q180.26-2.93 179.98-2.25L179.98-2.25L179.98-2.25Q179.70-1.57 179.19-1.08L179.19-1.08L179.19-1.08Q178.69-0.59 178.02-0.29L178.02-0.29L178.02-0.29Q177.35 0 176.58 0L176.58 0L176.58 0Q175.80 0 175.13-0.29L175.13-0.29L175.13-0.29Q174.45-0.59 173.94-1.08L173.94-1.08L173.94-1.08Q173.44-1.57 173.16-2.25L173.16-2.25L173.16-2.25Q172.88-2.93 172.88-3.70L172.88-3.70L172.88-3.70Q172.88-4.48 173.16-5.14L173.16-5.14L173.16-5.14Q173.44-5.81 173.94-6.32L173.94-6.32L173.94-6.32Q174.45-6.82 175.13-7.10L175.13-7.10L175.13-7.10Q175.80-7.38 176.58-7.38L176.58-7.38L176.58-7.38Q177.35-7.38 178.02-7.10L178.02-7.10L178.02-7.10Q178.69-6.82 179.19-6.32L179.19-6.32L179.19-6.32Q179.70-5.81 179.98-5.14L179.98-5.14L179.98-5.14Q180.26-4.48 180.26-3.70" fill="#ffffff" stroke="none" stroke-width="none" transform="translate(-104.79998016357422,12.924604936079556)" style="fill: rgb(219, 236, 255);"></path></g><g class="path" style="opacity: 1; transform-origin: 87.0703px 9.23438px 0px; animation: 1s linear -0.06s infinite normal forwards running fade-73c50586-09fc-4de8-8194-5a0743e6c3c3;"><path d="M195.56-3.70L195.56-3.70L195.56-3.70Q195.56-2.93 195.28-2.25L195.28-2.25L195.28-2.25Q195-1.57 194.50-1.08L194.50-1.08L194.50-1.08Q193.99-0.59 193.32-0.29L193.32-0.29L193.32-0.29Q192.66 0 191.88 0L191.88 0L191.88 0Q191.11 0 190.43-0.29L190.43-0.29L190.43-0.29Q189.75-0.59 189.25-1.08L189.25-1.08L189.25-1.08Q188.74-1.57 188.46-2.25L188.46-2.25L188.46-2.25Q188.18-2.93 188.18-3.70L188.18-3.70L188.18-3.70Q188.18-4.48 188.46-5.14L188.46-5.14L188.46-5.14Q188.74-5.81 189.25-6.32L189.25-6.32L189.25-6.32Q189.75-6.82 190.43-7.10L190.43-7.10L190.43-7.10Q191.11-7.38 191.88-7.38L191.88-7.38L191.88-7.38Q192.66-7.38 193.32-7.10L193.32-7.10L193.32-7.10Q193.99-6.82 194.50-6.32L194.50-6.32L194.50-6.32Q195-5.81 195.28-5.14L195.28-5.14L195.28-5.14Q195.56-4.48 195.56-3.70" fill="#ffffff" stroke="none" stroke-width="none" transform="translate(-104.79998016357422,12.924604936079556)" style="fill: rgb(211, 230, 255);"></path></g><g class="path" style="opacity: 1; transform-origin: 102.375px 9.23438px 0px; animation: 1s linear 0s infinite normal forwards running fade-73c50586-09fc-4de8-8194-5a0743e6c3c3;"><path d="M210.87-3.70L210.87-3.70L210.87-3.70Q210.87-2.93 210.59-2.25L210.59-2.25L210.59-2.25Q210.30-1.57 209.80-1.08L209.80-1.08L209.80-1.08Q209.30-0.59 208.63-0.29L208.63-0.29L208.63-0.29Q207.96 0 207.19 0L207.19 0L207.19 0Q206.41 0 205.73-0.29L205.73-0.29L205.73-0.29Q205.05-0.59 204.55-1.08L204.55-1.08L204.55-1.08Q204.05-1.57 203.77-2.25L203.77-2.25L203.77-2.25Q203.48-2.93 203.48-3.70L203.48-3.70L203.48-3.70Q203.48-4.48 203.77-5.14L203.77-5.14L203.77-5.14Q204.05-5.81 204.55-6.32L204.55-6.32L204.55-6.32Q205.05-6.82 205.73-7.10L205.73-7.10L205.73-7.10Q206.41-7.38 207.19-7.38L207.19-7.38L207.19-7.38Q207.96-7.38 208.63-7.10L208.63-7.10L208.63-7.10Q209.30-6.82 209.80-6.32L209.80-6.32L209.80-6.32Q210.30-5.81 210.59-5.14L210.59-5.14L210.59-5.14Q210.87-4.48 210.87-3.70" fill="#ffffff" stroke="none" stroke-width="none" transform="translate(-104.79998016357422,12.924604936079556)" style="fill: rgb(255, 255, 255);"></path></g></g>
</g>
</g>
<style id="fade-73c50586-09fc-4de8-8194-5a0743e6c3c3" data-anikit="">@keyframes fade-73c50586-09fc-4de8-8194-5a0743e6c3c3
{
  0% {
    animation-timing-function: cubic-bezier(0.2057,0.573,0.3723,0.9184);
    opacity: 1;
  }
  100% {
    opacity: 0;
  }
}</style></svg>