<?xml version="1.0" encoding="utf-8"?>
<svg xmlns="http://www.w3.org/2000/svg" style="margin: auto; background: rgb(241, 242, 243); display: block; shape-rendering: auto;" width="163" height="43" preserveAspectRatio="xMidYMid">
<style type="text/css">
  text {
    text-anchor: middle; font-size: 22px; opacity: 0;
  }
</style>
<g style="transform-origin: 81.5px 21.5px; transform: scale(0.6875);">
<g transform="translate(81.5,21.5)">
  <g transform="translate(0,0)"><g class="path" style="opacity: 1; transform-origin: -60.625px -3.15416px; animation: 1s linear -0.6s infinite normal forwards running fade-25cb594a-8e9d-4a59-a459-b5f21751d716;"><path d="M20.90 0L6.05 0L1.47 0.10L1.47 0.10Q1.28-0.48 1.47-1.06L1.47-1.06L4.13-1.41L4.13-1.41Q4.26-3.04 4.26-5.18L4.26-5.18L4.26-24.06L1.66-24.38L1.66-24.38Q1.54-24.86 1.66-25.57L1.66-25.57L1.66-25.57Q3.42-25.44 6.05-25.44L6.05-25.44L6.05-25.44Q8.38-25.44 10.46-25.54L10.46-25.54L10.46-25.54Q10.66-24.96 10.46-24.38L10.46-24.38L7.81-24L7.81-24Q7.68-22.78 7.68-20.26L7.68-20.26L7.68-1.63L18.24-1.63L19.74-7.42L19.74-7.42Q20.22-7.55 20.93-7.42L20.93-7.42L20.90 0" fill="#31395a" stroke="none" stroke-width="none" transform="translate(-71.77747201919556,9.580836327726194)" style="fill: rgb(49, 57, 90);"></path></g><g class="path" style="opacity: 1; transform-origin: -40.5775px 1.03584px; animation: 1s linear -0.54s infinite normal forwards running fade-25cb594a-8e9d-4a59-a459-b5f21751d716;"><path d="M23.10-8.51L23.10-8.51L23.10-8.51Q23.10-10.43 23.66-12.11L23.66-12.11L23.66-12.11Q24.22-13.79 25.28-15.04L25.28-15.04L25.28-15.04Q26.34-16.29 27.82-17.01L27.82-17.01L27.82-17.01Q29.31-17.73 31.17-17.73L31.17-17.73L31.17-17.73Q32.99-17.73 34.50-17.01L34.50-17.01L34.50-17.01Q36-16.29 37.07-15.04L37.07-15.04L37.07-15.04Q38.14-13.79 38.72-12.11L38.72-12.11L38.72-12.11Q39.30-10.43 39.30-8.51L39.30-8.51L39.30-8.51Q39.30-6.53 38.70-4.86L38.70-4.86L38.70-4.86Q38.11-3.20 37.04-1.97L37.04-1.97L37.04-1.97Q35.97-0.74 34.46-0.05L34.46-0.05L34.46-0.05Q32.96 0.64 31.17 0.64L31.17 0.64L31.17 0.64Q29.28 0.64 27.79-0.03L27.79-0.03L27.79-0.03Q26.30-0.70 25.26-1.92L25.26-1.92L25.26-1.92Q24.22-3.14 23.66-4.82L23.66-4.82L23.66-4.82Q23.10-6.50 23.10-8.51zM27.78-14.40L27.78-14.40L27.78-14.40Q26.40-12.45 26.40-8.51L26.40-8.51L26.40-8.51Q26.40-6.56 26.77-5.09L26.77-5.09L26.77-5.09Q27.14-3.62 27.78-2.64L27.78-2.64L27.78-2.64Q28.42-1.66 29.28-1.18L29.28-1.18L29.28-1.18Q30.14-0.70 31.17-0.70L31.17-0.70L31.17-0.70Q32.16-0.70 33.06-1.18L33.06-1.18L33.06-1.18Q33.95-1.66 34.59-2.64L34.59-2.64L34.59-2.64Q35.23-3.62 35.62-5.09L35.62-5.09L35.62-5.09Q36-6.56 36-8.51L36-8.51L36-8.51Q36-10.46 35.62-11.95L35.62-11.95L35.62-11.95Q35.23-13.44 34.58-14.42L34.58-14.42L34.58-14.42Q33.92-15.39 33.04-15.89L33.04-15.89L33.04-15.89Q32.16-16.38 31.17-16.38L31.17-16.38L31.17-16.38Q29.18-16.38 27.78-14.40" fill="#31395a" stroke="none" stroke-width="none" transform="translate(-71.77747201919556,9.580836327726194)" style="fill: rgb(29, 32, 49);"></path></g><g class="path" style="opacity: 1; transform-origin: -22.035px 1.03584px; animation: 1s linear -0.48s infinite normal forwards running fade-25cb594a-8e9d-4a59-a459-b5f21751d716;"><path d="M44.99-4.26L44.99-4.26L44.99-4.26Q44.99-2.59 45.60-1.90L45.60-1.90L45.60-1.90Q46.21-1.22 47.52-1.22L47.52-1.22L47.52-1.22Q48.48-1.22 49.65-1.81L49.65-1.81L49.65-1.81Q50.82-2.40 51.81-3.52L51.81-3.52L51.81-8.51L51.81-8.51Q48.51-8.32 46.75-7.34L46.75-7.34L46.75-7.34Q44.99-6.37 44.99-4.26zM51.81-9.66L51.81-9.66L51.81-11.30L51.81-11.30Q51.81-14.02 51.18-15.25L51.18-15.25L51.18-15.25Q50.56-16.48 49.12-16.48L49.12-16.48L49.12-16.48Q47.65-16.48 46.75-15.54L46.75-15.54L46.75-15.54Q45.86-14.59 45.54-12.32L45.54-12.32L45.54-12.32Q44.51-12.10 44.03-12.10L44.03-12.10L44.03-12.10Q42.78-12.10 42.56-12.99L42.56-12.99L42.56-12.99Q42.56-15.17 44.45-16.45L44.45-16.45L44.45-16.45Q46.34-17.73 49.15-17.73L49.15-17.73L49.15-17.73Q52.26-17.73 53.55-16.46L53.55-16.46L53.55-16.46Q54.85-15.20 54.85-11.94L54.85-11.94L54.85-2.91L54.85-2.91Q54.85-2.11 54.94-1.54L54.94-1.54L57.47-1.22L57.47-1.22Q57.60-0.74 57.47 0L57.47 0L57.47 0Q55.20 0.10 52.64 0.45L52.64 0.45L52.64 0.45Q52.38 0.19 52.32-0.19L52.32-0.19L52.16-2.40L52.16-2.40Q49.50 0.64 46.24 0.64L46.24 0.64L46.24 0.64Q44.22 0.64 43.09-0.51L43.09-0.51L43.09-0.51Q41.95-1.66 41.95-3.62L41.95-3.62L41.95-3.62Q41.95-6.56 44.62-8.06L44.62-8.06L44.62-8.06Q47.30-9.57 51.81-9.66" fill="#31395a" stroke="none" stroke-width="none" transform="translate(-71.77747201919556,9.580836327726194)" style="fill: rgb(92, 96, 126);"></path></g><g class="path" style="opacity: 1; transform-origin: -3.55997px -3.13916px; animation: 1s linear -0.42s infinite normal forwards running fade-25cb594a-8e9d-4a59-a459-b5f21751d716;"><path d="M74.59-20.29L74.59-4.54L74.59-4.54Q74.59-2.40 74.69-1.54L74.69-1.54L77.22-1.22L77.22-1.22Q77.31-0.70 77.22 0L77.22 0L77.22 0Q74.88 0.10 72.35 0.45L72.35 0.45L72.35 0.45Q72.13 0.22 72.03-0.16L72.03-0.16L71.87-2.21L71.87-2.21Q70.75-0.90 69.09-0.11L69.09-0.11L69.09-0.11Q67.42 0.67 65.60 0.67L65.60 0.67L65.60 0.67Q62.82 0.67 60.99-1.65L60.99-1.65L60.99-1.65Q59.17-3.97 59.17-7.84L59.17-7.84L59.17-7.84Q59.17-12.32 61.55-15.02L61.55-15.02L61.55-15.02Q63.94-17.73 67.26-17.73L67.26-17.73L67.26-17.73Q69.89-17.73 71.55-16.48L71.55-16.48L71.55-20.77L71.55-20.77Q71.55-22.88 71.46-23.90L71.46-23.90L68.93-24.22L68.93-24.22Q68.80-24.70 68.93-25.44L68.93-25.44L68.93-25.44Q71.14-25.60 74.43-26.11L74.43-26.11L74.43-26.11Q74.72-25.79 74.75-25.47L74.75-25.47L74.75-25.47Q74.59-24.64 74.59-20.29L74.59-20.29zM67.01-16L67.01-16L67.01-16Q64.93-16 63.68-13.81L63.68-13.81L63.68-13.81Q62.43-11.62 62.43-7.74L62.43-7.74L62.43-7.74Q62.43-4.58 63.60-2.91L63.60-2.91L63.60-2.91Q64.77-1.25 66.69-1.25L66.69-1.25L66.69-1.25Q67.84-1.25 69.22-1.97L69.22-1.97L69.22-1.97Q70.59-2.69 71.55-3.97L71.55-3.97L71.55-14.21L71.55-14.21Q69.98-16 67.01-16" fill="#31395a" stroke="none" stroke-width="none" transform="translate(-71.77747201919556,9.580836327726194)" style="fill: rgb(168, 164, 185);"></path></g><g class="path" style="opacity: 1; transform-origin: 11.0675px 0.780836px; animation: 1s linear -0.36s infinite normal forwards running fade-25cb594a-8e9d-4a59-a459-b5f21751d716;"><path d="M84.42-11.90L84.42-11.90L84.42-1.63L87.01-1.15L87.01-1.15Q87.04-0.99 87.06-0.86L87.06-0.86L87.06-0.86Q87.07-0.74 87.07-0.58L87.07-0.58L87.07-0.58Q87.07-0.42 87.06-0.24L87.06-0.24L87.06-0.24Q87.04-0.06 87.01 0.13L87.01 0.13L87.01 0.13Q84.99 0.03 82.88 0.03L82.88 0.03L82.88 0.03Q82.14 0.03 81.10 0.05L81.10 0.05L81.10 0.05Q80.06 0.06 78.72 0.10L78.72 0.10L78.72 0.10Q78.62-0.19 78.62-0.51L78.62-0.51L78.62-0.51Q78.62-0.80 78.72-1.15L78.72-1.15L81.25-1.50L81.25-1.50Q81.31-2.40 81.34-3.41L81.34-3.41L81.34-3.41Q81.38-4.42 81.38-5.57L81.38-5.57L81.38-12.38L81.38-12.38Q81.38-14.50 81.28-15.52L81.28-15.52L78.75-15.84L78.75-15.84Q78.69-16 78.69-16.38L78.69-16.38L78.69-16.38Q78.69-16.54 78.69-16.70L78.69-16.70L78.69-16.70Q78.69-16.86 78.75-17.06L78.75-17.06L78.75-17.06Q80.93-17.18 84.26-17.73L84.26-17.73L84.26-17.73Q84.54-17.41 84.58-17.09L84.58-17.09L84.58-17.09Q84.42-16.19 84.42-11.90" fill="#31395a" stroke="none" stroke-width="none" transform="translate(-71.77747201919556,9.580836327726194)" style="fill: rgb(201, 197, 213);"></path></g><g class="path" style="opacity: 1; transform-origin: 10.2725px -14.3092px; animation: 1s linear -0.3s infinite normal forwards running fade-25cb594a-8e9d-4a59-a459-b5f21751d716;"><path d="M79.74-23.33L79.74-23.33L79.74-23.33Q79.68-23.49 79.68-23.66L79.68-23.66L79.68-23.66Q79.68-23.84 79.68-24L79.68-24L79.68-24Q79.68-24.86 80.40-25.39L80.40-25.39L80.40-25.39Q81.12-25.92 82.18-25.92L82.18-25.92L82.18-25.92Q83.17-25.92 83.79-25.33L83.79-25.33L83.79-25.33Q84.42-24.74 84.42-23.71L84.42-23.71L84.42-23.71Q84.42-22.88 83.70-22.37L83.70-22.37L83.70-22.37Q82.98-21.86 81.86-21.86L81.86-21.86L81.86-21.86Q81.09-21.86 80.50-22.24L80.50-22.24L80.50-22.24Q79.90-22.62 79.74-23.33" fill="#31395a" stroke="none" stroke-width="none" transform="translate(-71.77747201919556,9.580836327726194)" style="fill: rgb(12, 11, 13);"></path></g><g class="path" style="opacity: 1; transform-origin: 26.3175px 0.780836px; animation: 1s linear -0.24s infinite normal forwards running fade-25cb594a-8e9d-4a59-a459-b5f21751d716;"><path d="M101.95-5.57L101.95-11.42L101.95-11.42Q101.95-13.89 101.30-14.88L101.30-14.88L101.30-14.88Q100.64-15.87 99.10-15.87L99.10-15.87L99.10-15.87Q96.74-15.87 94.34-12.32L94.34-12.32L94.34-1.63L96.93-1.15L96.93-1.15Q97.06-0.64 96.93 0.13L96.93 0.13L96.93 0.13Q94.91 0.03 92.80 0.03L92.80 0.03L92.80 0.03Q91.33 0.03 88.64 0.10L88.64 0.10L88.64 0.10Q88.45-0.51 88.64-1.15L88.64-1.15L91.17-1.50L91.17-1.50Q91.30-3.26 91.30-5.57L91.30-5.57L91.30-14.34L91.30-14.34Q91.30-14.98 91.20-15.52L91.20-15.52L88.67-15.84L88.67-15.84Q88.54-16.32 88.67-17.06L88.67-17.06L88.67-17.06Q90.88-17.22 94.18-17.73L94.18-17.73L94.18-17.73Q94.46-17.41 94.50-17.09L94.50-17.09L94.50-17.09Q94.34-16.26 94.34-14.24L94.34-14.24L94.34-14.24Q96.86-17.73 100.03-17.73L100.03-17.73L100.03-17.73Q104.99-17.73 104.99-13.02L104.99-13.02L104.99-1.63L107.58-1.15L107.58-1.15Q107.71-0.64 107.58 0.13L107.58 0.13L107.58 0.13Q105.57 0.03 103.46 0.03L103.46 0.03L103.46 0.03Q101.98 0.03 99.30 0.10L99.30 0.10L99.30 0.10Q99.10-0.51 99.30-1.15L99.30-1.15L101.82-1.50L101.82-1.50Q101.95-3.26 101.95-5.57L101.95-5.57" fill="#31395a" stroke="none" stroke-width="none" transform="translate(-71.77747201919556,9.580836327726194)" style="fill: rgb(49, 57, 90);"></path></g><g class="path" style="opacity: 1; transform-origin: 45.0725px 3.32584px; animation: 1s linear -0.18s infinite normal forwards running fade-25cb594a-8e9d-4a59-a459-b5f21751d716;"><path d="M111.90 0.35L111.90 0.35L111.90 0.35Q112.19 0.48 112.38 0.90L112.38 0.90L112.38 0.90Q111.33 1.76 111.33 3.49L111.33 3.49L111.33 3.49Q111.33 5.02 112.74 5.95L112.74 5.95L112.74 5.95Q114.14 6.88 116.38 6.88L116.38 6.88L116.38 6.88Q118.69 6.88 120.22 6.03L120.22 6.03L120.22 6.03Q121.76 5.18 121.76 3.65L121.76 3.65L121.76 3.65Q121.76 1.98 121.15 1.20L121.15 1.20L121.15 1.20Q120.54 0.42 118.72 0.26L118.72 0.26L112.74-0.29L112.74-0.29Q111.74-0.42 111.09-1.33L111.09-1.33L111.09-1.33Q110.43-2.24 110.43-3.10L110.43-3.10L112.58-6.66L112.58-6.66Q111.10-7.49 110.35-8.86L110.35-8.86L110.35-8.86Q109.60-10.24 109.60-11.68L109.60-11.68L109.60-11.68Q109.60-14.40 111.62-16.06L111.62-16.06L111.62-16.06Q113.63-17.73 116.26-17.73L116.26-17.73L116.26-17.73Q118.78-17.73 120.70-16.38L120.70-16.38L120.70-16.38Q120.86-20.77 123.97-20.93L123.97-20.93L123.97-20.93Q124.80-20.74 124.80-19.55L124.80-19.55L124.80-19.55Q124.80-18.91 124.67-18.14L124.67-18.14L124.67-18.14Q123.42-18.05 122.62-17.33L122.62-17.33L122.62-17.33Q121.82-16.61 121.47-15.68L121.47-15.68L121.47-15.68Q123.07-14.08 123.07-11.68L123.07-11.68L123.07-11.68Q123.07-9.15 121.02-7.47L121.02-7.47L121.02-7.47Q118.98-5.79 116.26-5.79L116.26-5.79L116.26-5.79Q114.82-5.79 113.66-6.18L113.66-6.18L112.58-3.33L120.54-2.53L120.54-2.53Q122.40-2.30 123.38-1.17L123.38-1.17L123.38-1.17Q124.35-0.03 124.35 1.79L124.35 1.79L124.35 1.79Q124.35 4.99 122.05 6.70L122.05 6.70L122.05 6.70Q119.74 8.42 115.81 8.42L115.81 8.42L115.81 8.42Q112.54 8.42 110.72 7.23L110.72 7.23L110.72 7.23Q108.90 6.05 108.90 4.06L108.90 4.06L108.90 4.06Q108.90 2.72 109.76 1.68L109.76 1.68L109.76 1.68Q110.62 0.64 111.90 0.35zM112.48-11.68L112.48-11.68L112.48-11.68Q112.48-9.82 113.52-8.51L113.52-8.51L113.52-8.51Q114.56-7.20 116.29-7.20L116.29-7.20L116.29-7.20Q117.98-7.20 119.07-8.50L119.07-8.50L119.07-8.50Q120.16-9.79 120.16-11.68L120.16-11.68L120.16-11.68Q120.16-13.73 119.09-15.09L119.09-15.09L119.09-15.09Q118.02-16.45 116.29-16.45L116.29-16.45L116.29-16.45Q114.66-16.45 113.57-15.07L113.57-15.07L113.57-15.07Q112.48-13.70 112.48-11.68" fill="#31395a" stroke="none" stroke-width="none" transform="translate(-71.77747201919556,9.580836327726194)" style="fill: rgb(29, 32, 49);"></path></g><g class="path" style="opacity: 1; transform-origin: 56.6675px 8.01584px; animation: 1s linear -0.12s infinite normal forwards running fade-25cb594a-8e9d-4a59-a459-b5f21751d716;"><path d="M128.42-3.55L128.42-3.55L128.42-3.55Q129.28-3.55 129.87-2.99L129.87-2.99L129.87-2.99Q130.46-2.43 130.46-1.60L130.46-1.60L130.46-1.60Q130.46-0.77 129.87-0.18L129.87-0.18L129.87-0.18Q129.28 0.42 128.45 0.42L128.45 0.42L128.45 0.42Q127.62 0.42 127.02-0.18L127.02-0.18L127.02-0.18Q126.43-0.77 126.43-1.60L126.43-1.60L126.43-1.60Q126.43-2.43 127.01-2.99L127.01-2.99L127.01-2.99Q127.58-3.55 128.42-3.55" fill="#31395a" stroke="none" stroke-width="none" transform="translate(-71.77747201919556,9.580836327726194)" style="fill: rgb(92, 96, 126);"></path></g><g class="path" style="opacity: 1; transform-origin: 63.9025px 8.01584px; animation: 1s linear -0.06s infinite normal forwards running fade-25cb594a-8e9d-4a59-a459-b5f21751d716;"><path d="M135.65-3.55L135.65-3.55L135.65-3.55Q136.51-3.55 137.10-2.99L137.10-2.99L137.10-2.99Q137.70-2.43 137.70-1.60L137.70-1.60L137.70-1.60Q137.70-0.77 137.10-0.18L137.10-0.18L137.10-0.18Q136.51 0.42 135.68 0.42L135.68 0.42L135.68 0.42Q134.85 0.42 134.26-0.18L134.26-0.18L134.26-0.18Q133.66-0.77 133.66-1.60L133.66-1.60L133.66-1.60Q133.66-2.43 134.24-2.99L134.24-2.99L134.24-2.99Q134.82-3.55 135.65-3.55" fill="#31395a" stroke="none" stroke-width="none" transform="translate(-71.77747201919556,9.580836327726194)" style="fill: rgb(168, 164, 185);"></path></g><g class="path" style="opacity: 1; transform-origin: 71.1375px 8.01584px; animation: 1s linear 0s infinite normal forwards running fade-25cb594a-8e9d-4a59-a459-b5f21751d716;"><path d="M142.88-3.55L142.88-3.55L142.88-3.55Q143.74-3.55 144.34-2.99L144.34-2.99L144.34-2.99Q144.93-2.43 144.93-1.60L144.93-1.60L144.93-1.60Q144.93-0.77 144.34-0.18L144.34-0.18L144.34-0.18Q143.74 0.42 142.91 0.42L142.91 0.42L142.91 0.42Q142.08 0.42 141.49-0.18L141.49-0.18L141.49-0.18Q140.90-0.77 140.90-1.60L140.90-1.60L140.90-1.60Q140.90-2.43 141.47-2.99L141.47-2.99L141.47-2.99Q142.05-3.55 142.88-3.55" fill="#31395a" stroke="none" stroke-width="none" transform="translate(-71.77747201919556,9.580836327726194)" style="fill: rgb(201, 197, 213);"></path></g></g>
</g>
</g>
<style id="fade-25cb594a-8e9d-4a59-a459-b5f21751d716" data-anikit="">@keyframes fade-25cb594a-8e9d-4a59-a459-b5f21751d716
{
  0% {
    animation-timing-function: cubic-bezier(0.2057,0.573,0.3723,0.9184);
    opacity: 1;
  }
  100% {
    opacity: 0;
  }
}</style></svg>