<?xml version="1.0" encoding="utf-8"?>
<svg xmlns="http://www.w3.org/2000/svg" style="margin: auto; background: rgb(255, 255, 255) none repeat scroll 0% 0%; display: block; shape-rendering: auto;" width="285" height="50" preserveAspectRatio="xMidYMid">
<style type="text/css">
  text {
    text-anchor: middle; font-size: 48px; opacity: 0;
  }
</style>
<g style="transform-origin: 142.5px 25px 0px; transform: scale(0.774194);">
<g transform="translate(142.5,25)">
  <g transform="translate(0,0)"><g class="path" style="opacity: 1; transform-origin: -164.189px -6.01953px 0px; animation: 1s linear -0.625263s infinite normal forwards running fade-73c50586-09fc-4de8-8194-5a0743e6c3c3;"><path d="M18.41 0L2.06 0L2.06-2.66L5.75-2.91L5.75-2.91Q6.42-2.97 6.74-3.39L6.74-3.39L6.74-3.39Q7.05-3.81 7.05-4.27L7.05-4.27L7.05-37.33L7.05-37.33Q7.05-37.78 6.74-38.17L6.74-38.17L6.74-38.17Q6.42-38.57 5.75-38.63L5.75-38.63L2.06-38.87L2.06-41.60L18.41-41.60L18.41-38.87L14.62-38.63L14.62-38.63Q13.99-38.57 13.65-38.17L13.65-38.17L13.65-38.17Q13.32-37.78 13.32-37.33L13.32-37.33L13.32-4.27L13.32-4.27Q13.32-3.81 13.65-3.39L13.65-3.39L13.65-3.39Q13.99-2.97 14.62-2.91L14.62-2.91L18.41-2.66L18.41 0" fill="#1d0e0b" stroke="none" stroke-width="none" transform="translate(-174.42499542236328,14.779340209960946)" style="fill: rgb(29, 14, 11);"></path></g><g class="path" style="opacity: 1; transform-origin: -136.385px -0.539063px 0px; animation: 1s linear -0.590526s infinite normal forwards running fade-73c50586-09fc-4de8-8194-5a0743e6c3c3;"><path d="M54.37 0L40.69 0L40.69-2.42L43.29-2.60L43.29-2.60Q43.84-2.66 44.21-3.03L44.21-3.03L44.21-3.03Q44.59-3.39 44.59-3.97L44.59-3.97L44.59-20.10L44.59-20.10Q44.59-23.04 43.23-24.57L43.23-24.57L43.23-24.57Q41.87-26.10 38.63-26.10L38.63-26.10L38.63-26.10Q36.84-26.10 35.12-25.60L35.12-25.60L35.12-25.60Q33.39-25.10 31.82-24.31L31.82-24.31L31.82-3.97L31.82-3.97Q31.82-3.39 32.18-3.03L32.18-3.03L32.18-3.03Q32.54-2.66 33.12-2.60L33.12-2.60L35.72-2.42L35.72 0L21.71 0L21.71-2.42L24.73-2.60L24.73-2.60Q25.31-2.66 25.67-3.03L25.67-3.03L25.67-3.03Q26.04-3.39 26.04-3.97L26.04-3.97L26.04-25.49L21.71-25.49L21.71-27.52L29.27-29.88L31.82-29.88L31.82-26.79L31.82-26.79Q33.12-27.52 34.47-28.21L34.47-28.21L34.47-28.21Q35.81-28.91 37.15-29.46L37.15-29.46L37.15-29.46Q38.48-30.00 39.72-30.32L39.72-30.32L39.72-30.32Q40.96-30.64 42.05-30.64L42.05-30.64L42.05-30.64Q46.11-30.64 48.23-28.12L48.23-28.12L48.23-28.12Q50.34-25.61 50.34-21.07L50.34-21.07L50.34-3.97L50.34-3.97Q50.34-3.39 50.72-3.03L50.72-3.03L50.72-3.03Q51.10-2.66 51.65-2.60L51.65-2.60L54.37-2.42L54.37 0" fill="#1d0e0b" stroke="none" stroke-width="none" transform="translate(-174.42499542236328,14.779340209960946)" style="fill: rgb(29, 14, 11);"></path></g><g class="path" style="opacity: 1; transform-origin: -109.111px -25.3066px 0px; animation: 1s linear -0.55579s infinite normal forwards running fade-73c50586-09fc-4de8-8194-5a0743e6c3c3;"><path d="M69.11-40.11L69.11-40.11L69.11-40.11Q69.11-39.33 68.83-38.61L68.83-38.61L68.83-38.61Q68.54-37.90 68.02-37.39L68.02-37.39L68.02-37.39Q67.51-36.87 66.83-36.57L66.83-36.57L66.83-36.57Q66.15-36.27 65.36-36.27L65.36-36.27L65.36-36.27Q64.57-36.27 63.86-36.57L63.86-36.57L63.86-36.57Q63.15-36.87 62.64-37.39L62.64-37.39L62.64-37.39Q62.12-37.90 61.82-38.61L61.82-38.61L61.82-38.61Q61.52-39.33 61.52-40.11L61.52-40.11L61.52-40.11Q61.52-40.90 61.82-41.60L61.82-41.60L61.82-41.60Q62.12-42.29 62.64-42.81L62.64-42.81L62.64-42.81Q63.15-43.32 63.86-43.61L63.86-43.61L63.86-43.61Q64.57-43.90 65.36-43.90L65.36-43.90L65.36-43.90Q66.15-43.90 66.83-43.61L66.83-43.61L66.83-43.61Q67.51-43.32 68.02-42.81L68.02-42.81L68.02-42.81Q68.54-42.29 68.83-41.60L68.83-41.60L68.83-41.60Q69.11-40.90 69.11-40.11" fill="#1d0e0b" stroke="none" stroke-width="none" transform="translate(-174.42499542236328,14.779340209960946)" style="fill: rgb(29, 14, 11);"></path></g><g class="path" style="opacity: 1; transform-origin: -109.416px -0.539063px 0px; animation: 1s linear -0.521053s infinite normal forwards running fade-73c50586-09fc-4de8-8194-5a0743e6c3c3;"><path d="M72.29 0L57.73 0L57.73-2.42L60.76-2.60L60.76-2.60Q61.33-2.66 61.70-3.03L61.70-3.03L61.70-3.03Q62.06-3.39 62.06-3.97L62.06-3.97L62.06-26.10L57.79-26.10L57.79-28.28L65.36-30.64L67.81-30.64L67.81-3.97L67.81-3.97Q67.81-3.39 68.19-3.03L68.19-3.03L68.19-3.03Q68.57-2.66 69.11-2.60L69.11-2.60L72.29-2.42L72.29 0" fill="#1d0e0b" stroke="none" stroke-width="none" transform="translate(-174.42499542236328,14.779340209960946)" style="fill: rgb(29, 14, 11);"></path></g><g class="path" style="opacity: 1; transform-origin: -88.8535px -3.53516px 0px; animation: 1s linear -0.486316s infinite normal forwards running fade-73c50586-09fc-4de8-8194-5a0743e6c3c3;"><path d="M95.06-3.78L95.06-1.30L95.06-1.30Q93.91-0.73 92.55-0.27L92.55-0.27L92.55-0.27Q91.40 0.12 89.88 0.44L89.88 0.44L89.88 0.44Q88.37 0.76 86.70 0.76L86.70 0.76L86.70 0.76Q83.19 0.76 81.62-0.88L81.62-0.88L81.62-0.88Q80.04-2.51 80.04-6.21L80.04-6.21L80.04-26.79L76.08-26.79L76.08-28.82L80.32-30.82L83.10-37.39L85.83-37.39L85.83-29.88L94.57-29.88L94.57-26.79L85.83-26.79L85.83-9.48L85.83-9.48Q85.83-7.63 86.14-6.34L86.14-6.34L86.14-6.34Q86.46-5.06 87.08-4.25L87.08-4.25L87.08-4.25Q87.70-3.45 88.63-3.09L88.63-3.09L88.63-3.09Q89.55-2.72 90.79-2.72L90.79-2.72L90.79-2.72Q91.70-2.72 92.47-2.88L92.47-2.88L92.47-2.88Q93.24-3.03 93.82-3.24L93.82-3.24L93.82-3.24Q94.48-3.48 95.06-3.78L95.06-3.78" fill="#1d0e0b" stroke="none" stroke-width="none" transform="translate(-174.42499542236328,14.779340209960946)" style="fill: rgb(29, 14, 11);"></path></g><g class="path" style="opacity: 1; transform-origin: -69.2402px -25.3066px 0px; animation: 1s linear -0.451579s infinite normal forwards running fade-73c50586-09fc-4de8-8194-5a0743e6c3c3;"><path d="M108.98-40.11L108.98-40.11L108.98-40.11Q108.98-39.33 108.70-38.61L108.70-38.61L108.70-38.61Q108.41-37.90 107.89-37.39L107.89-37.39L107.89-37.39Q107.38-36.87 106.70-36.57L106.70-36.57L106.70-36.57Q106.02-36.27 105.23-36.27L105.23-36.27L105.23-36.27Q104.44-36.27 103.73-36.57L103.73-36.57L103.73-36.57Q103.02-36.87 102.51-37.39L102.51-37.39L102.51-37.39Q101.99-37.90 101.69-38.61L101.69-38.61L101.69-38.61Q101.39-39.33 101.39-40.11L101.39-40.11L101.39-40.11Q101.39-40.90 101.69-41.60L101.69-41.60L101.69-41.60Q101.99-42.29 102.51-42.81L102.51-42.81L102.51-42.81Q103.02-43.32 103.73-43.61L103.73-43.61L103.73-43.61Q104.44-43.90 105.23-43.90L105.23-43.90L105.23-43.90Q106.02-43.90 106.70-43.61L106.70-43.61L106.70-43.61Q107.38-43.32 107.89-42.81L107.89-42.81L107.89-42.81Q108.41-42.29 108.70-41.60L108.70-41.60L108.70-41.60Q108.98-40.90 108.98-40.11" fill="#1d0e0b" stroke="none" stroke-width="none" transform="translate(-174.42499542236328,14.779340209960946)" style="fill: rgb(29, 14, 11);"></path></g><g class="path" style="opacity: 1; transform-origin: -69.5449px -0.539063px 0px; animation: 1s linear -0.416842s infinite normal forwards running fade-73c50586-09fc-4de8-8194-5a0743e6c3c3;"><path d="M112.16 0L97.60 0L97.60-2.42L100.63-2.60L100.63-2.60Q101.20-2.66 101.57-3.03L101.57-3.03L101.57-3.03Q101.93-3.39 101.93-3.97L101.93-3.97L101.93-26.10L97.66-26.10L97.66-28.28L105.23-30.64L107.68-30.64L107.68-3.97L107.68-3.97Q107.68-3.39 108.06-3.03L108.06-3.03L108.06-3.03Q108.44-2.66 108.98-2.60L108.98-2.60L112.16-2.42L112.16 0" fill="#1d0e0b" stroke="none" stroke-width="none" transform="translate(-174.42499542236328,14.779340209960946)" style="fill: rgb(29, 14, 11);"></path></g><g class="path" style="opacity: 1; transform-origin: -43.8242px -0.160156px 0px; animation: 1s linear -0.382105s infinite normal forwards running fade-73c50586-09fc-4de8-8194-5a0743e6c3c3;"><path d="M144.80 0L135.63 0L134.81-3.66L134.81-3.66Q133.17-2.42 131.45-1.45L131.45-1.45L131.45-1.45Q130.69-1.03 129.84-0.64L129.84-0.64L129.84-0.64Q129.00-0.24 128.10 0.08L128.10 0.08L128.10 0.08Q127.21 0.39 126.29 0.58L126.29 0.58L126.29 0.58Q125.36 0.76 124.45 0.76L124.45 0.76L124.45 0.76Q122.76 0.76 121.29 0.18L121.29 0.18L121.29 0.18Q119.82-0.39 118.73-1.48L118.73-1.48L118.73-1.48Q117.64-2.57 117.02-4.12L117.02-4.12L117.02-4.12Q116.40-5.66 116.40-7.63L116.40-7.63L116.40-7.63Q116.40-8.78 116.63-9.81L116.63-9.81L116.63-9.81Q116.86-10.84 117.55-11.81L117.55-11.81L117.55-11.81Q118.25-12.78 119.50-13.67L119.50-13.67L119.50-13.67Q120.76-14.56 122.80-15.44L122.80-15.44L122.80-15.44Q124.85-16.32 127.80-17.18L127.80-17.18L127.80-17.18Q130.75-18.04 134.81-18.92L134.81-18.92L134.81-21.58L134.81-21.58Q134.81-24.70 133.42-26.20L133.42-26.20L133.42-26.20Q132.02-27.70 129.03-27.70L129.03-27.70L129.03-27.70Q127.39-27.70 126.24-27.40L126.24-27.40L126.24-27.40Q125.09-27.09 124.64-26.91L124.64-26.91L124.64-21.52L120.13-21.52L120.13-21.52Q119.70-21.52 119.29-21.58L119.29-21.58L119.29-21.58Q118.88-21.65 118.55-21.84L118.55-21.84L118.55-21.84Q118.22-22.04 118.02-22.39L118.02-22.39L118.02-22.39Q117.82-22.74 117.82-23.31L117.82-23.31L117.82-23.31Q117.82-25.22 118.97-26.60L118.97-26.60L118.97-26.60Q120.13-27.97 121.97-28.88L121.97-28.88L121.97-28.88Q123.82-29.79 126.12-30.21L126.12-30.21L126.12-30.21Q128.42-30.64 130.72-30.64L130.72-30.64L130.72-30.64Q133.60-30.64 135.49-29.94L135.49-29.94L135.49-29.94Q137.38-29.24 138.49-28.00L138.49-28.00L138.49-28.00Q139.59-26.76 140.04-25.07L140.04-25.07L140.04-25.07Q140.50-23.37 140.50-21.34L140.50-21.34L140.50-3.97L140.50-3.97Q140.50-3.39 140.88-3.03L140.88-3.03L140.88-3.03Q141.26-2.66 141.80-2.60L141.80-2.60L144.80-2.42L144.80 0zM134.81-5.84L134.81-16.56L134.81-16.56Q130.63-15.50 128.18-14.47L128.18-14.47L128.18-14.47Q125.73-13.44 124.47-12.40L124.47-12.40L124.47-12.40Q123.21-11.35 122.86-10.28L122.86-10.28L122.86-10.28Q122.52-9.20 122.52-8.05L122.52-8.05L122.52-8.05Q122.52-7.08 122.83-6.16L122.83-6.16L122.83-6.16Q123.15-5.24 123.74-4.51L123.74-4.51L123.74-4.51Q124.33-3.78 125.20-3.35L125.20-3.35L125.20-3.35Q126.06-2.91 127.18-2.91L127.18-2.91L127.18-2.91Q128.42-2.91 129.77-3.36L129.77-3.36L129.77-3.36Q131.11-3.81 132.23-4.36L132.23-4.36L132.23-4.36Q133.54-5.00 134.81-5.84L134.81-5.84" fill="#1d0e0b" stroke="none" stroke-width="none" transform="translate(-174.42499542236328,14.779340209960946)" style="fill: rgb(29, 14, 11);"></path></g><g class="path" style="opacity: 1; transform-origin: -19.4258px -8.06055px 0px; animation: 1s linear -0.347368s infinite normal forwards running fade-73c50586-09fc-4de8-8194-5a0743e6c3c3;"><path d="M162.57 0L147.49 0L147.49-2.42L150.79-2.60L150.79-2.60Q151.22-2.60 151.69-3.04L151.69-3.04L151.69-3.04Q152.15-3.48 152.15-3.91L152.15-3.91L152.15-41.23L147.43-41.23L147.43-43.29L155.36-45.68L157.91-45.68L157.91-3.91L157.91-3.91Q157.91-3.48 158.35-3.04L158.35-3.04L158.35-3.04Q158.78-2.60 159.21-2.60L159.21-2.60L162.57-2.42L162.57 0" fill="#1d0e0b" stroke="none" stroke-width="none" transform="translate(-174.42499542236328,14.779340209960946)" style="fill: rgb(29, 14, 11);"></path></g><g class="path" style="opacity: 1; transform-origin: -0.484375px -25.3066px 0px; animation: 1s linear -0.312632s infinite normal forwards running fade-73c50586-09fc-4de8-8194-5a0743e6c3c3;"><path d="M177.74-40.11L177.74-40.11L177.74-40.11Q177.74-39.33 177.45-38.61L177.45-38.61L177.45-38.61Q177.16-37.90 176.65-37.39L176.65-37.39L176.65-37.39Q176.13-36.87 175.45-36.57L175.45-36.57L175.45-36.57Q174.77-36.27 173.98-36.27L173.98-36.27L173.98-36.27Q173.19-36.27 172.48-36.57L172.48-36.57L172.48-36.57Q171.77-36.87 171.26-37.39L171.26-37.39L171.26-37.39Q170.74-37.90 170.44-38.61L170.44-38.61L170.44-38.61Q170.14-39.33 170.14-40.11L170.14-40.11L170.14-40.11Q170.14-40.90 170.44-41.60L170.44-41.60L170.44-41.60Q170.74-42.29 171.26-42.81L171.26-42.81L171.26-42.81Q171.77-43.32 172.48-43.61L172.48-43.61L172.48-43.61Q173.19-43.90 173.98-43.90L173.98-43.90L173.98-43.90Q174.77-43.90 175.45-43.61L175.45-43.61L175.45-43.61Q176.13-43.32 176.65-42.81L176.65-42.81L176.65-42.81Q177.16-42.29 177.45-41.60L177.45-41.60L177.45-41.60Q177.74-40.90 177.74-40.11" fill="#1d0e0b" stroke="none" stroke-width="none" transform="translate(-174.42499542236328,14.779340209960946)" style="fill: rgb(29, 14, 11);"></path></g><g class="path" style="opacity: 1; transform-origin: -0.794922px -0.539063px 0px; animation: 1s linear -0.277895s infinite normal forwards running fade-73c50586-09fc-4de8-8194-5a0743e6c3c3;"><path d="M180.91 0L166.35 0L166.35-2.42L169.38-2.60L169.38-2.60Q169.96-2.66 170.32-3.03L170.32-3.03L170.32-3.03Q170.68-3.39 170.68-3.97L170.68-3.97L170.68-26.10L166.41-26.10L166.41-28.28L173.98-30.64L176.43-30.64L176.43-3.97L176.43-3.97Q176.43-3.39 176.81-3.03L176.81-3.03L176.81-3.03Q177.19-2.66 177.74-2.60L177.74-2.60L180.91-2.42L180.91 0" fill="#1d0e0b" stroke="none" stroke-width="none" transform="translate(-174.42499542236328,14.779340209960946)" style="fill: rgb(29, 14, 11);"></path></g><g class="path" style="opacity: 1; transform-origin: 22.9414px -0.160156px 0px; animation: 1s linear -0.243158s infinite normal forwards running fade-73c50586-09fc-4de8-8194-5a0743e6c3c3;"><path d="M209.58 0L185.15 0L185.15-3.30L201.56-26.97L190.78-26.97L190.78-26.97Q190.33-26.97 189.98-26.53L189.98-26.53L189.98-26.53Q189.63-26.10 189.54-25.67L189.54-25.67L188.94-21.07L185.76-21.07L185.76-29.88L208.71-29.88L208.71-27.34L191.72-2.97L204.22-2.97L204.22-2.97Q204.44-2.97 204.66-3.12L204.66-3.12L204.66-3.12Q204.89-3.27 205.09-3.48L205.09-3.48L205.09-3.48Q205.28-3.69 205.42-3.95L205.42-3.95L205.42-3.95Q205.56-4.21 205.59-4.45L205.59-4.45L206.22-9.35L209.58-9.35L209.58 0" fill="#1d0e0b" stroke="none" stroke-width="none" transform="translate(-174.42499542236328,14.779340209960946)" style="fill: rgb(29, 14, 11);"></path></g><g class="path" style="opacity: 1; transform-origin: 46.9512px -25.3066px 0px; animation: 1s linear -0.208421s infinite normal forwards running fade-73c50586-09fc-4de8-8194-5a0743e6c3c3;"><path d="M225.17-40.11L225.17-40.11L225.17-40.11Q225.17-39.33 224.89-38.61L224.89-38.61L224.89-38.61Q224.60-37.90 224.08-37.39L224.08-37.39L224.08-37.39Q223.57-36.87 222.89-36.57L222.89-36.57L222.89-36.57Q222.21-36.27 221.42-36.27L221.42-36.27L221.42-36.27Q220.63-36.27 219.92-36.57L219.92-36.57L219.92-36.57Q219.21-36.87 218.70-37.39L218.70-37.39L218.70-37.39Q218.18-37.90 217.88-38.61L217.88-38.61L217.88-38.61Q217.58-39.33 217.58-40.11L217.58-40.11L217.58-40.11Q217.58-40.90 217.88-41.60L217.88-41.60L217.88-41.60Q218.18-42.29 218.70-42.81L218.70-42.81L218.70-42.81Q219.21-43.32 219.92-43.61L219.92-43.61L219.92-43.61Q220.63-43.90 221.42-43.90L221.42-43.90L221.42-43.90Q222.21-43.90 222.89-43.61L222.89-43.61L222.89-43.61Q223.57-43.32 224.08-42.81L224.08-42.81L224.08-42.81Q224.60-42.29 224.89-41.60L224.89-41.60L224.89-41.60Q225.17-40.90 225.17-40.11" fill="#1d0e0b" stroke="none" stroke-width="none" transform="translate(-174.42499542236328,14.779340209960946)" style="fill: rgb(29, 14, 11);"></path></g><g class="path" style="opacity: 1; transform-origin: 46.6445px -0.539063px 0px; animation: 1s linear -0.173684s infinite normal forwards running fade-73c50586-09fc-4de8-8194-5a0743e6c3c3;"><path d="M228.35 0L213.79 0L213.79-2.42L216.82-2.60L216.82-2.60Q217.39-2.66 217.76-3.03L217.76-3.03L217.76-3.03Q218.12-3.39 218.12-3.97L218.12-3.97L218.12-26.10L213.85-26.10L213.85-28.28L221.42-30.64L223.87-30.64L223.87-3.97L223.87-3.97Q223.87-3.39 224.25-3.03L224.25-3.03L224.25-3.03Q224.63-2.66 225.17-2.60L225.17-2.60L228.35-2.42L228.35 0" fill="#1d0e0b" stroke="none" stroke-width="none" transform="translate(-174.42499542236328,14.779340209960946)" style="fill: rgb(29, 14, 11);"></path></g><g class="path" style="opacity: 1; transform-origin: 73.6191px -0.539063px 0px; animation: 1s linear -0.138947s infinite normal forwards running fade-73c50586-09fc-4de8-8194-5a0743e6c3c3;"><path d="M264.38 0L250.69 0L250.69-2.42L253.30-2.60L253.30-2.60Q253.84-2.66 254.22-3.03L254.22-3.03L254.22-3.03Q254.60-3.39 254.60-3.97L254.60-3.97L254.60-20.10L254.60-20.10Q254.60-23.04 253.24-24.57L253.24-24.57L253.24-24.57Q251.88-26.10 248.64-26.10L248.64-26.10L248.64-26.10Q246.85-26.10 245.12-25.60L245.12-25.60L245.12-25.60Q243.40-25.10 241.82-24.31L241.82-24.31L241.82-3.97L241.82-3.97Q241.82-3.39 242.19-3.03L242.19-3.03L242.19-3.03Q242.55-2.66 243.13-2.60L243.13-2.60L245.73-2.42L245.73 0L231.71 0L231.71-2.42L234.74-2.60L234.74-2.60Q235.32-2.66 235.68-3.03L235.68-3.03L235.68-3.03Q236.04-3.39 236.04-3.97L236.04-3.97L236.04-25.49L231.71-25.49L231.71-27.52L239.28-29.88L241.82-29.88L241.82-26.79L241.82-26.79Q243.13-27.52 244.47-28.21L244.47-28.21L244.47-28.21Q245.82-28.91 247.15-29.46L247.15-29.46L247.15-29.46Q248.48-30.00 249.73-30.32L249.73-30.32L249.73-30.32Q250.97-30.64 252.06-30.64L252.06-30.64L252.06-30.64Q256.11-30.64 258.23-28.12L258.23-28.12L258.23-28.12Q260.35-25.61 260.35-21.07L260.35-21.07L260.35-3.97L260.35-3.97Q260.35-3.39 260.73-3.03L260.73-3.03L260.73-3.03Q261.11-2.66 261.65-2.60L261.65-2.60L264.38-2.42L264.38 0" fill="#1d0e0b" stroke="none" stroke-width="none" transform="translate(-174.42499542236328,14.779340209960946)" style="fill: rgb(29, 14, 11);"></path></g><g class="path" style="opacity: 1; transform-origin: 107.996px 6.56055px 0px; animation: 1s linear -0.104211s infinite normal forwards running fade-73c50586-09fc-4de8-8194-5a0743e6c3c3;"><path d="M297.10-25.73L290.93-25.73L290.93-25.73Q291.62-24.61 292.11-23.30L292.11-23.30L292.11-23.30Q292.59-21.98 292.59-20.16L292.59-20.16L292.59-20.16Q292.59-17.83 291.59-16.01L291.59-16.01L291.59-16.01Q290.59-14.20 288.91-12.93L288.91-12.93L288.91-12.93Q287.23-11.66 285.04-10.99L285.04-10.99L285.04-10.99Q282.84-10.32 280.42-10.32L280.42-10.32L279.82-10.32L279.82-10.32Q279.51-10.32 279.21-10.35L279.21-10.35L279.21-10.35Q278.82-9.72 278.68-8.99L278.68-8.99L278.68-8.99Q278.55-8.26 278.55-7.63L278.55-7.63L278.55-7.63Q278.55-7.05 278.61-6.66L278.61-6.66L278.61-6.66Q278.67-6.27 278.70-6.21L278.70-6.21L279.58-6.12L279.58-6.12Q281.03-5.96 282.77-5.77L282.77-5.77L282.77-5.77Q284.51-5.57 286.28-5.19L286.28-5.19L286.28-5.19Q288.05-4.81 289.72-4.22L289.72-4.22L289.72-4.22Q291.38-3.63 292.67-2.74L292.67-2.74L292.67-2.74Q293.96-1.85 294.73-0.56L294.73-0.56L294.73-0.56Q295.50 0.73 295.50 2.48L295.50 2.48L295.50 2.48Q295.50 4.69 294.24 6.80L294.24 6.80L294.24 6.80Q292.99 8.90 290.81 10.55L290.81 10.55L290.81 10.55Q288.63 12.20 285.69 13.20L285.69 13.20L285.69 13.20Q282.75 14.20 279.39 14.20L279.39 14.20L279.39 14.20Q276.61 14.20 274.44 13.53L274.44 13.53L274.44 13.53Q272.28 12.87 270.80 11.69L270.80 11.69L270.80 11.69Q269.31 10.50 268.53 8.89L268.53 8.89L268.53 8.89Q267.74 7.27 267.74 5.39L267.74 5.39L267.74 5.39Q267.74 4.03 268.13 2.80L268.13 2.80L268.13 2.80Q268.53 1.57 269.34 0.59L269.34 0.59L269.34 0.59Q270.16-0.39 271.39-1.10L271.39-1.10L271.39-1.10Q272.61-1.82 274.31-2.12L274.31-2.12L274.31-2.12Q274.13-2.60 274.00-2.92L274.00-2.92L274.00-2.92Q273.88-3.24 273.81-3.53L273.81-3.53L273.81-3.53Q273.73-3.81 273.70-4.13L273.70-4.13L273.70-4.13Q273.67-4.45 273.67-4.96L273.67-4.96L273.67-4.96Q273.67-6.18 274.41-7.64L274.41-7.64L274.41-7.64Q275.16-9.11 276.79-10.78L276.79-10.78L276.79-10.78Q275.25-11.14 273.85-11.93L273.85-11.93L273.85-11.93Q272.46-12.71 271.40-13.91L271.40-13.91L271.40-13.91Q270.34-15.11 269.72-16.67L269.72-16.67L269.72-16.67Q269.10-18.22 269.10-20.10L269.10-20.10L269.10-20.10Q269.10-22.55 270.01-24.51L270.01-24.51L270.01-24.51Q270.92-26.46 272.55-27.82L272.55-27.82L272.55-27.82Q274.19-29.18 276.47-29.91L276.47-29.91L276.47-29.91Q278.76-30.64 281.54-30.64L281.54-30.64L281.54-30.64Q282.63-30.64 283.68-30.46L283.68-30.46L283.68-30.46Q284.72-30.27 285.65-29.99L285.65-29.99L285.65-29.99Q286.57-29.70 287.36-29.37L287.36-29.37L287.36-29.37Q288.14-29.03 288.75-28.76L288.75-28.76L297.10-28.76L297.10-25.73zM290.17 4.15L290.17 4.15L290.17 4.15Q290.17 2.88 289.54 1.98L289.54 1.98L289.54 1.98Q288.90 1.09 287.85 0.51L287.85 0.51L287.85 0.51Q286.81-0.06 285.49-0.41L285.49-0.41L285.49-0.41Q284.18-0.76 282.83-0.98L282.83-0.98L282.83-0.98Q281.48-1.21 280.21-1.35L280.21-1.35L280.21-1.35Q278.94-1.48 278.03-1.67L278.03-1.67L278.03-1.67Q276.67-1.18 275.76-0.50L275.76-0.50L275.76-0.50Q274.85 0.18 274.31 0.97L274.31 0.97L274.31 0.97Q273.76 1.76 273.54 2.57L273.54 2.57L273.54 2.57Q273.31 3.39 273.31 4.15L273.31 4.15L273.31 4.15Q273.31 5.27 273.79 6.54L273.79 6.54L273.79 6.54Q274.28 7.81 275.28 8.87L275.28 8.87L275.28 8.87Q276.28 9.93 277.80 10.64L277.80 10.64L277.80 10.64Q279.33 11.35 281.42 11.35L281.42 11.35L281.42 11.35Q283.63 11.35 285.28 10.64L285.28 10.64L285.28 10.64Q286.93 9.93 288.02 8.87L288.02 8.87L288.02 8.87Q289.11 7.81 289.64 6.54L289.64 6.54L289.64 6.54Q290.17 5.27 290.17 4.15zM286.69-20.53L286.69-20.53L286.69-20.53Q286.69-21.98 286.31-23.36L286.31-23.36L286.31-23.36Q285.93-24.73 285.21-25.78L285.21-25.78L285.21-25.78Q284.48-26.82 283.40-27.46L283.40-27.46L283.40-27.46Q282.33-28.09 280.94-28.09L280.94-28.09L280.94-28.09Q279.64-28.09 278.55-27.58L278.55-27.58L278.55-27.58Q277.46-27.06 276.68-26.08L276.68-26.08L276.68-26.08Q275.91-25.10 275.47-23.67L275.47-23.67L275.47-23.67Q275.03-22.25 275.03-20.46L275.03-20.46L275.03-20.46Q275.03-18.92 275.41-17.54L275.41-17.54L275.41-17.54Q275.79-16.17 276.53-15.14L276.53-15.14L276.53-15.14Q277.27-14.11 278.38-13.50L278.38-13.50L278.38-13.50Q279.48-12.90 280.94-12.90L280.94-12.90L280.94-12.90Q282.33-12.90 283.40-13.50L283.40-13.50L283.40-13.50Q284.48-14.11 285.21-15.14L285.21-15.14L285.21-15.14Q285.93-16.17 286.31-17.56L286.31-17.56L286.31-17.56Q286.69-18.95 286.69-20.53" fill="#1d0e0b" stroke="none" stroke-width="none" transform="translate(-174.42499542236328,14.779340209960946)" style="fill: rgb(29, 14, 11);"></path></g><g class="path" style="opacity: 1; transform-origin: 132.17px 10.0098px 0px; animation: 1s linear -0.0694737s infinite normal forwards running fade-73c50586-09fc-4de8-8194-5a0743e6c3c3;"><path d="M311.36-4.78L311.36-4.78L311.36-4.78Q311.36-3.78 311.00-2.91L311.00-2.91L311.00-2.91Q310.64-2.03 309.98-1.39L309.98-1.39L309.98-1.39Q309.33-0.76 308.47-0.38L308.47-0.38L308.47-0.38Q307.61 0 306.61 0L306.61 0L306.61 0Q305.61 0 304.73-0.38L304.73-0.38L304.73-0.38Q303.85-0.76 303.20-1.39L303.20-1.39L303.20-1.39Q302.55-2.03 302.19-2.91L302.19-2.91L302.19-2.91Q301.83-3.78 301.83-4.78L301.83-4.78L301.83-4.78Q301.83-5.78 302.19-6.65L302.19-6.65L302.19-6.65Q302.55-7.51 303.20-8.16L303.20-8.16L303.20-8.16Q303.85-8.81 304.73-9.17L304.73-9.17L304.73-9.17Q305.61-9.54 306.61-9.54L306.61-9.54L306.61-9.54Q307.61-9.54 308.47-9.17L308.47-9.17L308.47-9.17Q309.33-8.81 309.98-8.16L309.98-8.16L309.98-8.16Q310.64-7.51 311.00-6.65L311.00-6.65L311.00-6.65Q311.36-5.78 311.36-4.78" fill="#1d0e0b" stroke="none" stroke-width="none" transform="translate(-174.42499542236328,14.779340209960946)" style="fill: rgb(29, 14, 11);"></path></g><g class="path" style="opacity: 1; transform-origin: 151.934px 10.0098px 0px; animation: 1s linear -0.0347368s infinite normal forwards running fade-73c50586-09fc-4de8-8194-5a0743e6c3c3;"><path d="M331.13-4.78L331.13-4.78L331.13-4.78Q331.13-3.78 330.77-2.91L330.77-2.91L330.77-2.91Q330.40-2.03 329.75-1.39L329.75-1.39L329.75-1.39Q329.10-0.76 328.24-0.38L328.24-0.38L328.24-0.38Q327.38 0 326.38 0L326.38 0L326.38 0Q325.38 0 324.50-0.38L324.50-0.38L324.50-0.38Q323.62-0.76 322.97-1.39L322.97-1.39L322.97-1.39Q322.32-2.03 321.96-2.91L321.96-2.91L321.96-2.91Q321.59-3.78 321.59-4.78L321.59-4.78L321.59-4.78Q321.59-5.78 321.96-6.65L321.96-6.65L321.96-6.65Q322.32-7.51 322.97-8.16L322.97-8.16L322.97-8.16Q323.62-8.81 324.50-9.17L324.50-9.17L324.50-9.17Q325.38-9.54 326.38-9.54L326.38-9.54L326.38-9.54Q327.38-9.54 328.24-9.17L328.24-9.17L328.24-9.17Q329.10-8.81 329.75-8.16L329.75-8.16L329.75-8.16Q330.40-7.51 330.77-6.65L330.77-6.65L330.77-6.65Q331.13-5.78 331.13-4.78" fill="#1d0e0b" stroke="none" stroke-width="none" transform="translate(-174.42499542236328,14.779340209960946)" style="fill: rgb(29, 14, 11);"></path></g><g class="path" style="opacity: 1; transform-origin: 171.705px 10.0098px 0px; animation: 1s linear 0s infinite normal forwards running fade-73c50586-09fc-4de8-8194-5a0743e6c3c3;"><path d="M350.90-4.78L350.90-4.78L350.90-4.78Q350.90-3.78 350.54-2.91L350.54-2.91L350.54-2.91Q350.17-2.03 349.52-1.39L349.52-1.39L349.52-1.39Q348.87-0.76 348.01-0.38L348.01-0.38L348.01-0.38Q347.15 0 346.15 0L346.15 0L346.15 0Q345.15 0 344.27-0.38L344.27-0.38L344.27-0.38Q343.39-0.76 342.74-1.39L342.74-1.39L342.74-1.39Q342.09-2.03 341.73-2.91L341.73-2.91L341.73-2.91Q341.36-3.78 341.36-4.78L341.36-4.78L341.36-4.78Q341.36-5.78 341.73-6.65L341.73-6.65L341.73-6.65Q342.09-7.51 342.74-8.16L342.74-8.16L342.74-8.16Q343.39-8.81 344.27-9.17L344.27-9.17L344.27-9.17Q345.15-9.54 346.15-9.54L346.15-9.54L346.15-9.54Q347.15-9.54 348.01-9.17L348.01-9.17L348.01-9.17Q348.87-8.81 349.52-8.16L349.52-8.16L349.52-8.16Q350.17-7.51 350.54-6.65L350.54-6.65L350.54-6.65Q350.90-5.78 350.90-4.78" fill="#1d0e0b" stroke="none" stroke-width="none" transform="translate(-174.42499542236328,14.779340209960946)" style="fill: rgb(29, 14, 11);"></path></g></g>
</g>
</g>
<style id="fade-73c50586-09fc-4de8-8194-5a0743e6c3c3" data-anikit="">@keyframes fade-73c50586-09fc-4de8-8194-5a0743e6c3c3
{
  0% {
    animation-timing-function: cubic-bezier(0.2057,0.573,0.3723,0.9184);
    opacity: 1;
  }
  100% {
    opacity: 0;
  }
}</style></svg>